<?xml version="1.0" encoding="utf-8"?>
<!-- Generator: Adobe Illustrator 15.0.0, SVG Export Plug-In . SVG Version: 6.00 Build 0)  -->
<!DOCTYPE svg PUBLIC "-//W3C//DTD SVG 1.1//EN" "http://www.w3.org/Graphics/SVG/1.1/DTD/svg11.dtd">
<svg version="1.1" id="Layer_1" xmlns="http://www.w3.org/2000/svg" xmlns:xlink="http://www.w3.org/1999/xlink" x="0px" y="0px"
	 width="130px" height="130px" viewBox="0 0 130 130" enable-background="new 0 0 130 130" xml:space="preserve">
<g>
	<g>
		<path fill="#231F20" d="M122.771,12.245c-0.191,0-0.383-0.073-0.529-0.22c-0.293-0.293-0.293-0.768,0-1.061l1.287-1.287
			c0.293-0.293,0.768-0.293,1.061,0s0.293,0.768,0,1.061l-1.287,1.287C123.156,12.172,122.965,12.245,122.771,12.245z"/>
	</g>
	<g>
		<path fill="#231F20" d="M118.742,16.274c-0.191,0-0.383-0.073-0.529-0.22c-0.293-0.293-0.293-0.768,0-1.061l1.287-1.287
			c0.293-0.293,0.768-0.293,1.061,0s0.293,0.768,0,1.061l-1.287,1.287C119.127,16.201,118.936,16.274,118.742,16.274z"/>
	</g>
	<g>
		<path fill="#231F20" d="M124.061,16.274c-0.193,0-0.385-0.073-0.531-0.22l-1.287-1.287c-0.293-0.293-0.293-0.769,0-1.061
			c0.293-0.293,0.768-0.293,1.061,0l1.287,1.287c0.293,0.293,0.293,0.769,0,1.061C124.443,16.201,124.252,16.274,124.061,16.274z"/>
	</g>
	<g>
		<path fill="#231F20" d="M120.029,12.245c-0.191,0-0.383-0.073-0.529-0.22l-1.287-1.287c-0.293-0.293-0.293-0.768,0-1.061
			s0.768-0.293,1.061,0l1.287,1.287c0.293,0.293,0.293,0.768,0,1.061C120.414,12.172,120.221,12.245,120.029,12.245z"/>
	</g>
	<polygon fill="#FFD05B" points="127.748,77.62 127.748,126.531 3.75,126.531 3.75,77.62 13.782,88.883 117.717,88.883 	"/>
	<rect x="18.811" y="0.75" fill="#FFFFFF" width="86.169" height="86.127"/>
	<rect x="27.003" y="8.942" fill="#FFFFFF" width="86.168" height="77.935"/>
	<rect x="27.003" y="8.942" fill="#FFFFFF" width="86.168" height="12.271"/>
	<path fill="#231F20" d="M130.307,71.871l0.004-0.008l-12.93-14.515c-0.141-0.159-0.346-0.251-0.561-0.251h-2.898V21.214V8.943
		c0-0.415-0.336-0.75-0.75-0.75h-7.441V0.75c0-0.414-0.336-0.75-0.75-0.75H18.811c-0.414,0-0.75,0.336-0.75,0.75v56.348h-3.382
		c-0.214,0-0.418,0.092-0.56,0.251L1.19,71.863l0.003,0.008C1.077,72.004,1,72.173,1,72.363v56.172c0,0.414,0.336,0.75,0.75,0.75
		h128c0.414,0,0.75-0.336,0.75-0.75V72.363C130.5,72.173,130.424,72.004,130.307,71.871z M116.484,58.598l11.594,13.015v0.001
		h-14.156V58.598H116.484z M128.078,73.113l-11.594,13.014h-2.562V73.113H128.078z M27.753,21.964h84.668v64.163H27.753V21.964z
		 M112.422,9.693v10.771H27.753V9.693H112.422z M104.23,1.5v6.693H27.003c-0.414,0-0.75,0.335-0.75,0.75v12.271v64.913h-6.692V1.5
		H104.23z M18.061,86.127h-3.046L3.423,73.113h14.638V86.127z M3.422,71.612l11.593-13.015h3.046v13.016L3.422,71.612L3.422,71.612z
		 M129,127.785H2.5V74.332l11.619,13.045c0.142,0.159,0.346,0.25,0.56,0.25H116.82c0.215,0,0.42-0.091,0.561-0.25L129,74.332
		V127.785z"/>
	<circle fill="#FFFFFF" cx="104.876" cy="15.078" r="2.212"/>
	<path fill="#231F20" d="M104.877,18.04c-1.633,0-2.963-1.329-2.963-2.962c0-1.634,1.33-2.962,2.963-2.962s2.963,1.328,2.963,2.962
		C107.84,16.711,106.51,18.04,104.877,18.04z M104.877,13.616c-0.807,0-1.463,0.655-1.463,1.462s0.656,1.462,1.463,1.462
		s1.463-0.655,1.463-1.462S105.684,13.616,104.877,13.616z"/>
	<circle fill="#FFFFFF" cx="96.581" cy="15.078" r="2.212"/>
	<path fill="#231F20" d="M96.582,18.04c-1.633,0-2.963-1.329-2.963-2.962c0-1.634,1.33-2.962,2.963-2.962s2.961,1.328,2.961,2.962
		C99.543,16.711,98.215,18.04,96.582,18.04z M96.582,13.616c-0.807,0-1.463,0.655-1.463,1.462s0.656,1.462,1.463,1.462
		c0.805,0,1.461-0.655,1.461-1.462S97.387,13.616,96.582,13.616z"/>
	<circle fill="#FFFFFF" cx="88.286" cy="15.078" r="2.212"/>
	<path fill="#231F20" d="M88.287,18.04c-1.633,0-2.963-1.329-2.963-2.962c0-1.634,1.33-2.962,2.963-2.962s2.961,1.328,2.961,2.962
		C91.248,16.711,89.92,18.04,88.287,18.04z M88.287,13.616c-0.807,0-1.463,0.655-1.463,1.462s0.656,1.462,1.463,1.462
		s1.461-0.655,1.461-1.462S89.094,13.616,88.287,13.616z"/>
	<circle fill="#FFFFFF" cx="79.991" cy="15.078" r="2.212"/>
	<path fill="#231F20" d="M79.992,18.04c-1.635,0-2.963-1.329-2.963-2.962c0-1.634,1.328-2.962,2.963-2.962
		c1.633,0,2.961,1.328,2.961,2.962C82.953,16.711,81.625,18.04,79.992,18.04z M79.992,13.616c-0.807,0-1.463,0.655-1.463,1.462
		s0.656,1.462,1.463,1.462c0.805,0,1.461-0.655,1.461-1.462S80.797,13.616,79.992,13.616z"/>
	<circle fill="#84DBFF" cx="70.087" cy="53.947" r="15.081"/>
	<path fill="#231F20" d="M70.088,73.142c-10.584,0-19.195-8.61-19.195-19.194h1.5c0,9.756,7.938,17.694,17.695,17.694
		c9.758,0,17.695-7.938,17.695-17.694c0-9.758-7.938-17.695-17.695-17.695v-1.5c10.584,0,19.195,8.611,19.195,19.195
		S80.672,73.142,70.088,73.142z"/>
	<path fill="#231F20" d="M52.393,53.947h-1.5c0-0.35,0.009-0.695,0.028-1.041l1.498,0.082
		C52.401,53.307,52.393,53.625,52.393,53.947z M52.624,51.082l-1.48-0.241c0.056-0.344,0.121-0.685,0.194-1.021l1.466,0.32
		C52.735,50.451,52.675,50.765,52.624,51.082z M53.316,48.291l-1.422-0.479c0.112-0.33,0.231-0.656,0.36-0.979l1.393,0.558
		C53.529,47.687,53.418,47.988,53.316,48.291z M54.454,45.65l-1.324-0.703c0.163-0.307,0.334-0.609,0.514-0.907l1.284,0.775
		C54.763,45.09,54.604,45.367,54.454,45.65z M56.006,43.23l-1.192-0.909c0.21-0.276,0.428-0.547,0.653-0.811l1.142,0.974
		C56.401,42.727,56.2,42.977,56.006,43.23z M57.928,41.092l-1.03-1.09c0.252-0.238,0.51-0.47,0.774-0.693l0.97,1.144
		C58.399,40.659,58.161,40.873,57.928,41.092z M60.168,39.292l-0.841-1.242c0.286-0.194,0.578-0.38,0.875-0.56l0.774,1.285
		C60.703,38.94,60.433,39.113,60.168,39.292z M62.669,37.878l-0.629-1.361c0.313-0.146,0.631-0.282,0.953-0.41l0.556,1.394
		C63.252,37.619,62.958,37.744,62.669,37.878z M65.365,36.89l-0.399-1.446c0.333-0.092,0.67-0.176,1.01-0.249l0.319,1.466
		C65.982,36.728,65.672,36.805,65.365,36.89z M68.188,36.353l-0.158-1.491c0.342-0.037,0.688-0.064,1.035-0.083l0.08,1.498
		C68.824,36.293,68.504,36.318,68.188,36.353z"/>
	<path fill="#231F20" d="M66.008,61.289c-0.191,0-0.383-0.073-0.53-0.221l-5.024-5.023l1.061-1.061l4.494,4.493l12.654-12.652
		l1.061,1.061L66.539,61.068C66.393,61.216,66.2,61.289,66.008,61.289z"/>
	<g>
		<path fill="#FFFFFF" d="M104.35,102.672h-8.094c-0.414,0-0.75-0.336-0.75-0.75s0.336-0.75,0.75-0.75h8.094
			c0.416,0,0.75,0.336,0.75,0.75S104.766,102.672,104.35,102.672z"/>
	</g>
	<g>
		<path fill="#FFFFFF" d="M97.033,99.727L97.033,99.727l-3.959-0.001c-0.416,0-0.75-0.336-0.75-0.75s0.336-0.75,0.75-0.75l0,0
			l3.959,0.001c0.414,0,0.75,0.335,0.75,0.75C97.783,99.391,97.447,99.727,97.033,99.727z"/>
	</g>
	<g>
		<path fill="#FFFFFF" d="M92.586,102.672h-3.773c-0.414,0-0.75-0.336-0.75-0.75s0.336-0.75,0.75-0.75h3.773
			c0.414,0,0.75,0.336,0.75,0.75S93,102.672,92.586,102.672z"/>
	</g>
	<g>
		<path fill="#FFFFFF" d="M100.691,99.727H99.92c-0.414,0-0.75-0.336-0.75-0.75c0-0.415,0.336-0.75,0.75-0.75h0.771
			c0.416,0,0.75,0.335,0.75,0.75C101.441,99.391,101.107,99.727,100.691,99.727z"/>
	</g>
	<g>
		<path fill="#FFFFFF" d="M34.772,118.407h-8.095c-0.414,0-0.75-0.335-0.75-0.75c0-0.413,0.336-0.75,0.75-0.75h8.095
			c0.414,0,0.75,0.337,0.75,0.75C35.522,118.072,35.187,118.407,34.772,118.407z"/>
	</g>
	<g>
		<path fill="#FFFFFF" d="M27.455,115.462h-3.959c-0.414,0-0.75-0.336-0.75-0.75s0.336-0.75,0.75-0.75h3.959
			c0.414,0,0.75,0.336,0.75,0.75S27.869,115.462,27.455,115.462z"/>
	</g>
	<g>
		<path fill="#FFFFFF" d="M23.007,118.407h-3.772c-0.414,0-0.75-0.335-0.75-0.75c0-0.413,0.336-0.75,0.75-0.75h3.772
			c0.414,0,0.75,0.337,0.75,0.75C23.757,118.072,23.421,118.407,23.007,118.407z"/>
	</g>
	<g>
		<path fill="#FFFFFF" d="M31.114,115.462h-0.772c-0.414,0-0.75-0.336-0.75-0.75s0.336-0.75,0.75-0.75h0.772
			c0.414,0,0.75,0.336,0.75,0.75S31.528,115.462,31.114,115.462z"/>
	</g>
	<circle fill="#FF7058" cx="121.105" cy="36.503" r="2.363"/>
	<circle fill="#84DBFF" cx="11.107" cy="47.91" r="2.363"/>
	<circle fill="#E6E9EE" cx="8.744" cy="11.495" r="2.363"/>
	<path fill="#231F20" d="M41.005,33.52c-0.192,0-0.384-0.073-0.53-0.22c-0.293-0.292-0.293-0.768,0-1.061l1.287-1.288
		c0.293-0.293,0.768-0.293,1.061,0s0.293,0.769,0,1.061L41.536,33.3C41.389,33.446,41.197,33.52,41.005,33.52z"/>
	<path fill="#231F20" d="M36.976,37.549c-0.192,0-0.384-0.073-0.53-0.22c-0.293-0.293-0.293-0.768,0-1.061l1.287-1.287
		c0.293-0.293,0.768-0.293,1.061,0s0.293,0.768,0,1.061l-1.287,1.287C37.36,37.476,37.168,37.549,36.976,37.549z"/>
	<path fill="#231F20" d="M42.292,37.549c-0.192,0-0.384-0.073-0.53-0.22l-1.287-1.287c-0.293-0.293-0.293-0.768,0-1.061
		s0.768-0.293,1.061,0l1.287,1.287c0.293,0.293,0.293,0.768,0,1.061C42.676,37.476,42.484,37.549,42.292,37.549z"/>
	<path fill="#231F20" d="M38.263,33.52c-0.192,0-0.384-0.073-0.53-0.22l-1.287-1.288c-0.293-0.292-0.293-0.768,0-1.061
		s0.768-0.293,1.061,0l1.287,1.288c0.293,0.293,0.293,0.769,0,1.061C38.647,33.446,38.455,33.52,38.263,33.52z"/>
	<path fill="#231F20" d="M96.424,71.771c-0.191,0-0.383-0.073-0.529-0.22c-0.293-0.293-0.293-0.768,0-1.061l1.287-1.287
		c0.293-0.293,0.768-0.293,1.061,0s0.293,0.768,0,1.061l-1.287,1.287C96.809,71.697,96.617,71.771,96.424,71.771z"/>
	<path fill="#231F20" d="M92.395,75.8c-0.191,0-0.383-0.073-0.529-0.22c-0.293-0.293-0.293-0.768,0-1.061l1.287-1.287
		c0.293-0.293,0.768-0.293,1.061,0s0.293,0.768,0,1.061l-1.287,1.287C92.779,75.727,92.588,75.8,92.395,75.8z"/>
	<path fill="#231F20" d="M97.711,75.8c-0.191,0-0.383-0.073-0.529-0.22l-1.287-1.287c-0.293-0.293-0.293-0.768,0-1.061
		s0.768-0.293,1.061,0l1.287,1.287c0.293,0.293,0.293,0.768,0,1.061C98.096,75.727,97.904,75.8,97.711,75.8z"/>
	<path fill="#231F20" d="M93.682,71.771c-0.191,0-0.383-0.073-0.529-0.22l-1.287-1.287c-0.293-0.294-0.293-0.769,0-1.061
		c0.293-0.293,0.768-0.293,1.061,0l1.287,1.287c0.293,0.293,0.293,0.768,0,1.061C94.066,71.697,93.875,71.771,93.682,71.771z"/>
	<circle fill="#E6E9EE" cx="100.692" cy="32.77" r="2.212"/>
	<circle fill="#84DBFF" cx="42.292" cy="73.763" r="2.211"/>
</g>
</svg>
