<?xml version="1.0" encoding="utf-8"?>
<!-- Generator: Adobe Illustrator 15.0.0, SVG Export Plug-In . SVG Version: 6.00 Build 0)  -->
<!DOCTYPE svg PUBLIC "-//W3C//DTD SVG 1.1//EN" "http://www.w3.org/Graphics/SVG/1.1/DTD/svg11.dtd">
<svg version="1.1" id="Layer_1" xmlns="http://www.w3.org/2000/svg" xmlns:xlink="http://www.w3.org/1999/xlink" x="0px" y="0px"
	 width="130px" height="130px" viewBox="0 0 130 130" enable-background="new 0 0 130 130" xml:space="preserve">
<g>
	<g>
		<g>
			<path fill="#231F20" d="M10.705,14.242c-0.192,0-0.384-0.073-0.53-0.22c-0.293-0.293-0.293-0.768,0-1.061l1.286-1.285
				c0.293-0.293,0.768-0.293,1.06,0c0.294,0.293,0.294,0.768,0,1.061l-1.285,1.285C11.089,14.169,10.896,14.242,10.705,14.242z"/>
		</g>
		<g>
			<path fill="#231F20" d="M6.682,18.266c-0.191,0-0.384-0.073-0.53-0.22c-0.293-0.293-0.293-0.768,0-1.061L7.437,15.7
				c0.293-0.293,0.768-0.293,1.062,0c0.293,0.293,0.293,0.768,0,1.061l-1.286,1.285C7.065,18.192,6.873,18.266,6.682,18.266z"/>
		</g>
		<g>
			<path fill="#231F20" d="M11.99,18.266c-0.191,0-0.383-0.073-0.529-0.22l-1.285-1.285c-0.293-0.293-0.293-0.768,0-1.061
				s0.768-0.293,1.061,0l1.284,1.285c0.294,0.293,0.294,0.768,0,1.061C12.374,18.192,12.183,18.266,11.99,18.266z"/>
		</g>
		<g>
			<path fill="#231F20" d="M7.967,14.242c-0.191,0-0.384-0.073-0.53-0.22l-1.285-1.285c-0.293-0.293-0.293-0.768,0-1.061
				s0.768-0.293,1.061,0l1.286,1.285c0.293,0.293,0.293,0.768,0,1.061C8.352,14.169,8.159,14.242,7.967,14.242z"/>
		</g>
	</g>
	<g>
		<g>
			<path fill="#231F20" d="M66.006,111.911c-0.192,0-0.385-0.073-0.531-0.22c-0.293-0.293-0.293-0.768,0-1.061l1.286-1.285
				c0.293-0.293,0.767-0.293,1.06,0s0.293,0.768,0,1.061l-1.285,1.285C66.389,111.838,66.197,111.911,66.006,111.911z"/>
		</g>
		<g>
			<path fill="#231F20" d="M61.982,115.935c-0.192,0-0.385-0.073-0.531-0.22c-0.293-0.293-0.293-0.768,0-1.061l1.286-1.285
				c0.292-0.293,0.767-0.293,1.06,0s0.293,0.768,0,1.061l-1.285,1.285C62.365,115.861,62.174,115.935,61.982,115.935z"/>
		</g>
		<g>
			<path fill="#231F20" d="M67.291,115.935c-0.192,0-0.385-0.073-0.53-0.22l-1.286-1.285c-0.293-0.293-0.293-0.768,0-1.061
				s0.768-0.293,1.061,0l1.285,1.285c0.293,0.293,0.293,0.768,0,1.061C67.675,115.861,67.482,115.935,67.291,115.935z"/>
		</g>
		<g>
			<path fill="#231F20" d="M63.267,111.911c-0.191,0-0.384-0.073-0.529-0.22l-1.286-1.285c-0.293-0.293-0.293-0.768,0-1.061
				s0.768-0.293,1.061,0l1.285,1.285c0.293,0.293,0.293,0.768,0,1.061C63.65,111.838,63.459,111.911,63.267,111.911z"/>
		</g>
	</g>
	<g>
		<g>
			<path fill="#231F20" d="M127.303,2.786c-0.192,0-0.385-0.073-0.531-0.22c-0.293-0.293-0.293-0.768,0-1.061l1.285-1.286
				c0.293-0.293,0.768-0.293,1.061,0s0.293,0.768,0.001,1.061l-1.285,1.286C127.687,2.713,127.494,2.786,127.303,2.786z"/>
		</g>
		<g>
			<path fill="#231F20" d="M123.278,6.809c-0.191,0-0.384-0.073-0.53-0.22c-0.293-0.293-0.293-0.768,0-1.061l1.285-1.285
				c0.293-0.293,0.769-0.293,1.062,0c0.292,0.293,0.292,0.768,0,1.061l-1.286,1.285C123.662,6.735,123.471,6.809,123.278,6.809z"/>
		</g>
		<g>
			<path fill="#231F20" d="M128.587,6.81c-0.191,0-0.384-0.073-0.53-0.22l-1.285-1.286c-0.293-0.293-0.293-0.768,0-1.061
				s0.769-0.293,1.062,0l1.285,1.286c0.292,0.293,0.292,0.768-0.001,1.061C128.971,6.736,128.779,6.81,128.587,6.81z"/>
		</g>
		<g>
			<path fill="#231F20" d="M124.564,2.786c-0.192,0-0.385-0.073-0.531-0.22l-1.285-1.286c-0.293-0.293-0.293-0.768,0-1.061
				s0.768-0.293,1.061,0l1.286,1.286c0.292,0.293,0.292,0.768,0,1.061C124.947,2.713,124.756,2.786,124.564,2.786z"/>
		</g>
	</g>
	<path fill="#E6E9EE" d="M21.174,71.747v7.918c0,3.311,2.683,5.993,5.992,5.993h95.429c3.31,0,5.992-2.683,5.992-5.993v-7.918
		H21.174z"/>
	<g>
		<rect x="27.166" y="16.983" fill="#FFD05B" width="95.429" height="48.772"/>
	</g>
	<path fill="#E6E9EE" d="M104.745,104.489H45.016v-2.727c0-2.661,2.157-4.818,4.818-4.818h50.093c2.661,0,4.818,2.157,4.818,4.818
		V104.489z"/>
	<g>
		<circle fill="#FFFFFF" cx="43.648" cy="47.294" r="4"/>
		<path fill="#231F20" d="M43.648,52.044c-2.619,0-4.75-2.131-4.75-4.75s2.131-4.75,4.75-4.75s4.75,2.131,4.75,4.75
			S46.268,52.044,43.648,52.044z M43.648,44.044c-1.792,0-3.25,1.458-3.25,3.25s1.458,3.25,3.25,3.25c1.793,0,3.25-1.458,3.25-3.25
			S45.441,44.044,43.648,44.044z"/>
	</g>
	<g>
		<circle fill="#FFFFFF" cx="63.389" cy="27.554" r="4"/>
		<path fill="#231F20" d="M63.389,32.305c-2.619,0-4.75-2.131-4.75-4.75c0-2.62,2.131-4.751,4.75-4.751s4.75,2.131,4.75,4.751
			C68.139,30.174,66.008,32.305,63.389,32.305z M63.389,24.304c-1.792,0-3.25,1.458-3.25,3.251c0,1.792,1.458,3.25,3.25,3.25
			s3.25-1.458,3.25-3.25C66.639,25.762,65.181,24.304,63.389,24.304z"/>
	</g>
	<g>
		<circle fill="#FFFFFF" cx="74.113" cy="43.294" r="4"/>
		<path fill="#231F20" d="M74.113,48.044c-2.619,0-4.75-2.131-4.75-4.75s2.131-4.75,4.75-4.75s4.75,2.131,4.75,4.75
			S76.732,48.044,74.113,48.044z M74.113,40.044c-1.792,0-3.25,1.458-3.25,3.25s1.458,3.25,3.25,3.25c1.793,0,3.25-1.458,3.25-3.25
			S75.906,40.044,74.113,40.044z"/>
	</g>
	<g>
		<circle fill="#FFFFFF" cx="89.953" cy="27.454" r="4"/>
		<path fill="#231F20" d="M89.953,32.204c-2.619,0-4.75-2.131-4.75-4.75s2.131-4.75,4.75-4.75s4.75,2.131,4.75,4.75
			S92.572,32.204,89.953,32.204z M89.953,24.204c-1.792,0-3.25,1.458-3.25,3.25s1.458,3.25,3.25,3.25s3.25-1.458,3.25-3.25
			S91.745,24.204,89.953,24.204z"/>
	</g>
	<g>
		<circle fill="#FFFFFF" cx="106.112" cy="43.613" r="4"/>
		<path fill="#231F20" d="M106.112,48.363c-2.619,0-4.75-2.131-4.75-4.75s2.131-4.75,4.75-4.75c2.62,0,4.75,2.131,4.75,4.75
			S108.732,48.363,106.112,48.363z M106.112,40.363c-1.792,0-3.25,1.458-3.25,3.25s1.458,3.25,3.25,3.25s3.25-1.458,3.25-3.25
			S107.904,40.363,106.112,40.363z"/>
	</g>
	<g>
		<path fill="#231F20" d="M46.506,45.248c-0.189,0-0.381-0.072-0.527-0.217c-0.294-0.291-0.297-0.766-0.006-1.061l14.01-14.165
			c0.29-0.295,0.766-0.297,1.06-0.006c0.295,0.291,0.298,0.766,0.007,1.061l-14.01,14.165
			C46.893,45.174,46.699,45.248,46.506,45.248z"/>
	</g>
	<g>
		<path fill="#231F20" d="M76.179,40.62c-0.21,0-0.419-0.088-0.567-0.259c-0.271-0.313-0.238-0.787,0.075-1.058l11.003-9.537
			c0.314-0.271,0.787-0.237,1.059,0.075c0.271,0.313,0.237,0.787-0.076,1.058l-11.003,9.537C76.527,40.56,76.352,40.62,76.179,40.62
			z"/>
	</g>
	<g>
		<path fill="#231F20" d="M103.544,41.299c-0.186,0-0.37-0.067-0.516-0.205L92.211,30.878c-0.301-0.284-0.314-0.759-0.03-1.06
			s0.76-0.316,1.061-0.03l10.817,10.216c0.301,0.284,0.314,0.759,0.031,1.06C103.941,41.22,103.743,41.299,103.544,41.299z"/>
	</g>
	<g>
		<path fill="#231F20" d="M72.048,40.62c-0.23,0-0.458-0.106-0.604-0.307l-6.548-8.923c-0.245-0.334-0.173-0.803,0.161-1.048
			c0.333-0.246,0.802-0.173,1.048,0.161l6.548,8.923c0.244,0.334,0.173,0.803-0.161,1.048C72.357,40.573,72.202,40.62,72.048,40.62z
			"/>
	</g>
	<g>
		<circle fill="#ACB3BA" cx="74.881" cy="78.702" r="4.063"/>
	</g>
	<g>
		<path fill="#231F20" d="M129.117,117.209c-7.138-7.138-16.627-11.068-26.721-11.068s-19.582,3.931-26.719,11.068
			c-0.293,0.293-0.293,0.768,0,1.061c7.137,7.138,16.626,11.068,26.72,11.068s19.583-3.931,26.72-11.068
			C129.41,117.977,129.41,117.502,129.117,117.209z M102.397,108.185c5.419,0,9.827,4.408,9.827,9.826
			c0,5.419-4.408,9.827-9.827,9.827s-9.827-4.408-9.827-9.827C92.57,112.593,96.979,108.185,102.397,108.185z M77.278,117.738
			c5.489-5.271,12.353-8.617,19.77-9.706c-3.555,1.913-5.978,5.668-5.978,9.979c0,3.812,1.898,7.182,4.793,9.236
			C88.902,125.987,82.475,122.728,77.278,117.738z M108.932,127.247c2.895-2.055,4.793-5.424,4.793-9.236
			c0-4.311-2.423-8.064-5.977-9.979c7.416,1.09,14.278,4.438,19.768,9.707C122.32,122.728,115.893,125.987,108.932,127.247z"/>
		<g>
			<circle fill="#84DBFF" cx="102.397" cy="118.011" r="5.48"/>
		</g>
		<g>
			<circle fill="#54C0EB" cx="102.397" cy="118.011" r="2.543"/>
		</g>
		<g>
			<path fill="#231F20" d="M102.397,126.525c-0.294,0-0.586-0.015-0.873-0.044l0.151-1.492c0.236,0.023,0.478,0.036,0.722,0.036
				l0.179-0.003l0.044,1.5L102.397,126.525z M104.776,126.188l-0.415-1.441c0.29-0.084,0.572-0.187,0.846-0.306l0.602,1.373
				C105.471,125.962,105.123,126.088,104.776,126.188z M99.394,125.98c-0.343-0.13-0.679-0.281-0.999-0.452l0.706-1.324
				c0.265,0.142,0.539,0.266,0.822,0.372L99.394,125.98z M107.682,124.688l-0.931-1.176c0.236-0.188,0.46-0.39,0.67-0.604
				l1.074,1.047C108.24,124.216,107.966,124.463,107.682,124.688z M96.613,124.259c-0.266-0.246-0.519-0.513-0.754-0.792
				l1.151-0.963c0.192,0.23,0.4,0.45,0.622,0.655L96.613,124.259z M109.808,122.207l-1.304-0.742
				c0.147-0.259,0.279-0.53,0.393-0.811l1.391,0.566C110.148,121.561,109.987,121.893,109.808,122.207z M94.685,121.622
				c-0.153-0.328-0.289-0.671-0.399-1.019l1.427-0.459c0.093,0.289,0.204,0.569,0.331,0.841L94.685,121.622z M110.843,119.104
				l-1.488-0.191c0.038-0.296,0.058-0.597,0.058-0.902c0-0.247-0.013-0.488-0.037-0.727l1.492-0.154
				c0.029,0.289,0.045,0.583,0.045,0.882C110.912,118.377,110.889,118.744,110.843,119.104z M93.894,118.45
				c-0.007-0.146-0.011-0.294-0.011-0.442c0-0.217,0.008-0.435,0.024-0.651l1.496,0.111c-0.013,0.18-0.021,0.36-0.021,0.543
				c0,0.124,0.003,0.244,0.009,0.363L93.894,118.45z M95.77,115.707l-1.417-0.492c0.12-0.347,0.264-0.688,0.427-1.011l1.34,0.674
				C95.985,115.145,95.869,115.422,95.77,115.707z M108.961,115.532c-0.106-0.282-0.231-0.557-0.371-0.82l1.322-0.707
				c0.171,0.32,0.324,0.656,0.453,0.996L108.961,115.532z M97.127,113.383l-1.126-0.992c0.243-0.274,0.503-0.535,0.773-0.773
				l0.991,1.127C97.539,112.942,97.325,113.156,97.127,113.383z M107.544,113.244c-0.205-0.221-0.425-0.429-0.656-0.622l0.962-1.15
				c0.281,0.234,0.548,0.487,0.794,0.753L107.544,113.244z M99.26,111.735l-0.673-1.342c0.329-0.164,0.669-0.308,1.013-0.426
				l0.488,1.418C99.803,111.484,99.526,111.602,99.26,111.735z M105.369,111.655c-0.271-0.127-0.551-0.237-0.84-0.329l0.454-1.43
				c0.345,0.109,0.688,0.244,1.022,0.399L105.369,111.655z M101.854,111.018l-0.116-1.496c0.36-0.027,0.73-0.034,1.096-0.015
				l-0.078,1.498C102.457,110.991,102.152,110.993,101.854,111.018z"/>
		</g>
		<g>
			<circle fill="#FFFFFF" cx="100.78" cy="116.354" r="1.385"/>
		</g>
	</g>
	<path fill="#FFFFFF" d="M47.27,128.588H4.839c-2.258,0-4.089-1.831-4.089-4.089v-62.31c0-2.258,1.831-4.089,4.089-4.089H47.27
		c2.258,0,4.089,1.831,4.089,4.089v62.31C51.358,126.757,49.527,128.588,47.27,128.588z"/>
	<g>
		<rect x="2.747" y="68.553" fill="#CED5E0" width="46.614" height="46.062"/>
	</g>
	<path fill="#FFFFFF" d="M0.75,116.522v7.981c0,2.256,1.828,4.084,4.084,4.084h42.44c2.255,0,4.084-1.828,4.084-4.084v-7.981H0.75z"
		/>
	<path fill="#FFFFFF" d="M51.358,66.746v-4.562c0-2.255-1.829-4.084-4.084-4.084H4.834c-2.256,0-4.084,1.829-4.084,4.084v4.562
		H51.358z"/>
	<g>
		<circle fill="#FFFFFF" cx="26.054" cy="122.556" r="3.037"/>
		<path fill="#231F20" d="M26.054,126.342c-2.088,0-3.787-1.699-3.787-3.787s1.699-3.786,3.787-3.786s3.787,1.698,3.787,3.786
			S28.142,126.342,26.054,126.342z M26.054,120.269c-1.261,0-2.287,1.025-2.287,2.286s1.026,2.287,2.287,2.287
			s2.287-1.026,2.287-2.287S27.314,120.269,26.054,120.269z"/>
	</g>
	<g>
		<path fill="#231F20" d="M19.685,63.173h-3.365c-0.414,0-0.75-0.336-0.75-0.75s0.336-0.75,0.75-0.75h3.365
			c0.414,0,0.75,0.336,0.75,0.75S20.099,63.173,19.685,63.173z"/>
	</g>
	<g>
		<path fill="#231F20" d="M35.789,63.173H22.177c-0.414,0-0.75-0.336-0.75-0.75s0.336-0.75,0.75-0.75h13.612
			c0.414,0,0.75,0.336,0.75,0.75S36.203,63.173,35.789,63.173z"/>
	</g>
	<g>
		<g>
			<path fill="#FFFFFF" d="M36.113,75.879h-8.082c-0.414,0-0.75-0.336-0.75-0.75s0.336-0.75,0.75-0.75h8.082
				c0.414,0,0.75,0.336,0.75,0.75S36.527,75.879,36.113,75.879z"/>
		</g>
		<g>
			<path fill="#FFFFFF" d="M39.291,78.82h-3.953c-0.413,0-0.75-0.336-0.75-0.75s0.337-0.75,0.75-0.75h3.953
				c0.414,0,0.75,0.336,0.75,0.75S39.705,78.82,39.291,78.82z"/>
		</g>
		<g>
			<path fill="#FFFFFF" d="M43.546,75.879h-3.767c-0.414,0-0.75-0.336-0.75-0.75s0.336-0.75,0.75-0.75h3.767
				c0.414,0,0.75,0.336,0.75,0.75S43.96,75.879,43.546,75.879z"/>
		</g>
		<g>
			<path fill="#FFFFFF" d="M32.455,78.82h-0.771c-0.414,0-0.75-0.336-0.75-0.75s0.336-0.75,0.75-0.75h0.771
				c0.414,0,0.75,0.336,0.75,0.75S32.869,78.82,32.455,78.82z"/>
		</g>
	</g>
	<g>
		<g>
			<path fill="#FFFFFF" d="M17.383,106.17H9.301c-0.414,0-0.75-0.336-0.75-0.75s0.336-0.75,0.75-0.75h8.082
				c0.414,0,0.75,0.336,0.75,0.75S17.797,106.17,17.383,106.17z"/>
		</g>
		<g>
			<path fill="#FFFFFF" d="M20.561,109.112h-3.953c-0.414,0-0.75-0.336-0.75-0.75s0.336-0.75,0.75-0.75h3.953
				c0.414,0,0.75,0.336,0.75,0.75S20.975,109.112,20.561,109.112z"/>
		</g>
		<g>
			<path fill="#FFFFFF" d="M24.816,106.17h-3.768c-0.414,0-0.75-0.336-0.75-0.75s0.336-0.75,0.75-0.75h3.768
				c0.413,0,0.75,0.336,0.75,0.75S25.229,106.17,24.816,106.17z"/>
		</g>
		<g>
			<path fill="#FFFFFF" d="M13.725,109.112h-0.771c-0.414,0-0.75-0.336-0.75-0.75s0.336-0.75,0.75-0.75h0.771
				c0.414,0,0.75,0.336,0.75,0.75S14.139,109.112,13.725,109.112z"/>
		</g>
	</g>
	<g>
		<circle fill="#FF7058" cx="98.135" cy="5.417" r="2.146"/>
	</g>
	<g>
		<circle fill="#84DBFF" cx="18.577" cy="7.325" r="2.146"/>
	</g>
	<g>
		<circle fill="#E6E9EE" cx="9.301" cy="47.294" r="2.146"/>
	</g>
	<g>
		<circle fill="#FF7058" cx="109.771" cy="94.644" r="2.146"/>
	</g>
	<g>
		<circle fill="#FFD05B" cx="64.636" cy="124.595" r="2.147"/>
	</g>
	<circle fill="#FFFFFF" cx="97.522" cy="67.528" r="15.842"/>
	<circle fill="#84DBFF" cx="97.522" cy="67.528" r="12.195"/>
	<line fill="#FFFFFF" x1="108.725" y1="78.729" x2="110.82" y2="80.827"/>
	<path fill="#FFFFFF" d="M110.225,81.423l1.191-1.191c0.875-0.876,2.295-0.876,3.17,0l13.508,13.508
		c0.875,0.875,0.875,2.293,0,3.168l-1.191,1.191c-0.876,0.876-2.295,0.876-3.17,0l-13.508-13.507
		C109.35,83.716,109.35,82.298,110.225,81.423z"/>
	<path fill="#231F20" d="M128.624,93.208l-6.801-6.8h0.771c3.718,0,6.742-3.024,6.742-6.742V16.982c0-3.718-3.024-6.742-6.742-6.742
		H27.166c-3.718,0-6.742,3.024-6.742,6.742V57.35H4.833C2.168,57.35,0,59.519,0,62.184v62.32c0,2.665,2.168,4.834,4.833,4.834
		h42.441c2.665,0,4.833-2.169,4.833-4.834v-19.265h52.638c0.414,0,0.75-0.336,0.75-0.75v-2.727c0-3.07-2.497-5.568-5.567-5.568
		H94.42v-9.786h16.561l12.222,12.222c1.166,1.166,3.064,1.166,4.23,0l1.191-1.191C129.79,96.272,129.79,94.374,128.624,93.208z
		 M127.837,79.666c0,2.891-2.352,5.242-5.242,5.242h-2.271l-5.208-5.208c-1.165-1.166-3.062-1.166-4.229,0l-0.064,0.065
		l-1.062-1.062c1.677-1.835,2.85-3.962,3.555-6.206h14.523V79.666z M108.194,78.2c-5.885,5.885-15.46,5.885-21.344,0
		c-5.885-5.885-5.885-15.459,0-21.344c5.884-5.884,15.459-5.884,21.344,0C114.078,62.741,114.078,72.315,108.194,78.2z
		 M50.607,124.499c0,1.841-1.498,3.339-3.338,3.339H4.839c-1.841,0-3.339-1.498-3.339-3.339v-7.227h49.107V124.499z M50.607,115.772
		H1.5V67.496h49.107V115.772z M50.607,65.996H1.5v-3.808c0-1.841,1.498-3.339,3.339-3.339H47.27c1.84,0,3.338,1.498,3.338,3.339
		V65.996z M47.274,57.35H21.924V16.982c0-2.891,2.352-5.242,5.242-5.242h95.429c2.891,0,5.242,2.352,5.242,5.242v54.015h-14.128
		c1.139-5.315-0.331-11.078-4.454-15.201c-6.47-6.469-16.996-6.469-23.465,0c-4.121,4.121-5.605,9.886-4.477,15.202H52.107v-8.813
		C52.107,59.519,49.939,57.35,47.274,57.35z M52.107,86.408h3.234v9.786h-3.234V86.408z M99.928,97.694
		c2.242,0,4.067,1.825,4.067,4.068v1.977H52.107v-6.045H99.928z M56.842,96.194v-9.786H92.92v9.786H56.842z M52.107,84.908V72.497
		h29.597c0.773,2.475,2.128,4.807,4.085,6.764c6.291,6.29,16.406,6.445,22.908,0.503l1.063,1.062l-0.066,0.065
		c-1.1,1.1-1.148,2.843-0.175,4.017H52.107z M127.562,96.378l-1.19,1.191c-0.582,0.581-1.527,0.581-2.109,0l-13.508-13.508
		c-0.581-0.582-0.581-1.527,0.001-2.109l1.19-1.191c0.582-0.58,1.527-0.58,2.108,0l13.508,13.508
		C128.145,94.851,128.145,95.796,127.562,96.378z"/>
</g>
</svg>
