<?xml version="1.0" encoding="utf-8"?>
<!-- Generator: Adobe Illustrator 15.0.0, SVG Export Plug-In . SVG Version: 6.00 Build 0)  -->
<!DOCTYPE svg PUBLIC "-//W3C//DTD SVG 1.1//EN" "http://www.w3.org/Graphics/SVG/1.1/DTD/svg11.dtd">
<svg version="1.1" id="Layer_1" xmlns="http://www.w3.org/2000/svg" xmlns:xlink="http://www.w3.org/1999/xlink" x="0px" y="0px"
	 width="130px" height="130px" viewBox="0 0 130 130" enable-background="new 0 0 130 130" xml:space="preserve">
<g>
	<g>
		<path fill="#84DBFF" d="M78.502,79.854c0,1.359-1.1,2.459-2.449,2.459H4.932L25.59,53.208L4.932,24.104h37.3v46.844
			c0,3.559,2.898,6.457,6.457,6.457h27.025l0.46,0.02C77.482,77.495,78.502,78.564,78.502,79.854z"/>
	</g>
	<g>
		<path fill="#84DBFF" d="M46.231,8.744c0-1.353,1.101-2.454,2.454-2.454h71.306v58.208H48.685c-0.868,0-1.697,0.173-2.454,0.485
			V8.744z"/>
	</g>
	<g>
		<path fill="#E6E9EE" d="M78.506,73.431v-4.935H48.685c-1.354,0-2.454,1.101-2.454,2.453c0,1.354,1.101,2.454,2.454,2.454h27.598
			l1.98,0.027H78.506z"/>
	</g>
	<g>
		<g>
			<path fill="#231F20" d="M7.804,6.127c-0.192,0-0.384-0.073-0.53-0.22c-0.293-0.293-0.293-0.768,0-1.061L8.56,3.561
				c0.293-0.293,0.768-0.293,1.061,0s0.293,0.768,0,1.061L8.334,5.907C8.188,6.054,7.996,6.127,7.804,6.127z"/>
		</g>
		<g>
			<path fill="#231F20" d="M3.777,10.153c-0.192,0-0.384-0.073-0.53-0.22c-0.293-0.293-0.293-0.768,0-1.061l1.286-1.286
				c0.293-0.293,0.768-0.293,1.061,0s0.293,0.768,0,1.061L4.308,9.934C4.161,10.08,3.97,10.153,3.777,10.153z"/>
		</g>
		<g>
			<path fill="#231F20" d="M9.09,10.153c-0.192,0-0.384-0.073-0.53-0.22L7.273,8.647c-0.293-0.293-0.293-0.768,0-1.061
				s0.768-0.293,1.061,0L9.62,8.873c0.293,0.293,0.293,0.768,0,1.061C9.474,10.08,9.282,10.153,9.09,10.153z"/>
		</g>
		<g>
			<path fill="#231F20" d="M5.063,6.127c-0.192,0-0.384-0.073-0.53-0.22L3.247,4.621c-0.293-0.293-0.293-0.768,0-1.061
				s0.768-0.293,1.061,0l1.286,1.286c0.293,0.293,0.293,0.768,0,1.061C5.447,6.054,5.256,6.127,5.063,6.127z"/>
		</g>
	</g>
	<g>
		<g>
			<path fill="#231F20" d="M113.484,80.464c-0.192,0-0.384-0.072-0.53-0.219c-0.293-0.294-0.293-0.768,0-1.062l1.286-1.285
				c0.293-0.294,0.768-0.294,1.061,0c0.293,0.293,0.293,0.767,0,1.06l-1.286,1.287C113.868,80.392,113.677,80.464,113.484,80.464z"
				/>
		</g>
		<g>
			<path fill="#231F20" d="M109.458,84.491c-0.192,0-0.384-0.074-0.53-0.221c-0.293-0.293-0.293-0.768,0-1.061l1.286-1.285
				c0.293-0.293,0.768-0.293,1.061,0c0.293,0.292,0.293,0.767,0,1.06l-1.286,1.286C109.842,84.417,109.65,84.491,109.458,84.491z"/>
		</g>
		<g>
			<path fill="#231F20" d="M114.771,84.491c-0.192,0-0.384-0.074-0.53-0.221l-1.286-1.286c-0.293-0.293-0.293-0.768,0-1.06
				c0.293-0.293,0.768-0.293,1.061,0l1.286,1.285c0.293,0.293,0.293,0.768,0,1.061C115.154,84.417,114.963,84.491,114.771,84.491z"
				/>
		</g>
		<g>
			<path fill="#231F20" d="M110.744,80.464c-0.192,0-0.384-0.072-0.53-0.219l-1.286-1.287c-0.293-0.293-0.293-0.768,0-1.061
				c0.293-0.294,0.768-0.292,1.061,0l1.286,1.286c0.293,0.294,0.293,0.769,0,1.062C111.128,80.392,110.936,80.464,110.744,80.464z"
				/>
		</g>
	</g>
	<g>
		<g>
			<path fill="#231F20" d="M9.816,103.587c-0.192,0-0.384-0.073-0.53-0.22c-0.293-0.292-0.293-0.767,0-1.06l1.286-1.287
				c0.293-0.293,0.768-0.293,1.061,0s0.293,0.768,0,1.061l-1.286,1.286C10.2,103.514,10.009,103.587,9.816,103.587z"/>
		</g>
		<g>
			<path fill="#231F20" d="M5.79,107.613c-0.192,0-0.384-0.073-0.53-0.22c-0.293-0.293-0.293-0.768,0-1.061l1.286-1.286
				c0.293-0.293,0.768-0.293,1.061,0c0.293,0.294,0.293,0.769,0,1.062l-1.286,1.285C6.174,107.54,5.982,107.613,5.79,107.613z"/>
		</g>
		<g>
			<path fill="#231F20" d="M11.103,107.613c-0.192,0-0.384-0.073-0.53-0.22l-1.286-1.285c-0.293-0.293-0.293-0.768,0-1.062
				c0.293-0.293,0.768-0.293,1.061,0l1.286,1.286c0.293,0.293,0.293,0.768,0,1.061C11.486,107.54,11.295,107.613,11.103,107.613z"/>
		</g>
		<g>
			<path fill="#231F20" d="M7.076,103.587c-0.192,0-0.384-0.073-0.53-0.22l-1.286-1.286c-0.293-0.293-0.293-0.768,0-1.061
				s0.768-0.293,1.061,0l1.286,1.287c0.293,0.293,0.293,0.768,0,1.06C7.46,103.514,7.269,103.587,7.076,103.587z"/>
		</g>
	</g>
	<rect x="121.989" y="0.751" fill="#FFD05B" width="6.471" height="128"/>
	<g>
		<circle fill="#FFD05B" cx="19.339" cy="8.117" r="2.825"/>
	</g>
	<g>
		<path fill="#231F20" d="M101.06,27.852c-2.22,0-4.026-1.806-4.026-4.026s1.807-4.026,4.026-4.026s4.026,1.806,4.026,4.026
			S103.279,27.852,101.06,27.852z M101.06,21.299c-1.393,0-2.526,1.134-2.526,2.526s1.134,2.526,2.526,2.526
			s2.526-1.134,2.526-2.526S102.452,21.299,101.06,21.299z"/>
	</g>
	<path fill="#FFFFFF" d="M40.675,83.987v-3.35l-2.572-0.239c-0.292-1.725-0.966-3.315-1.939-4.686l1.649-1.985l-2.369-2.369
		l-1.986,1.648c-1.37-0.973-2.961-1.646-4.686-1.938l-0.238-2.572h-3.351l-0.238,2.572c-1.725,0.292-3.316,0.966-4.686,1.938
		l-1.986-1.648l-2.369,2.369l1.649,1.985c-0.973,1.37-1.647,2.961-1.939,4.686l-2.573,0.239v3.35l2.573,0.239
		c0.292,1.725,0.966,3.315,1.939,4.686l-1.649,1.985l2.369,2.369l1.986-1.648c1.37,0.973,2.961,1.646,4.686,1.938l0.238,2.572h3.351
		l0.238-2.572c1.725-0.292,3.316-0.966,4.686-1.938l1.986,1.648l2.369-2.369l-1.649-1.985c0.973-1.37,1.647-2.961,1.939-4.686
		L40.675,83.987z"/>
	<path fill="#231F20" d="M128.461,0h-6.472c-0.414,0-0.75,0.337-0.75,0.75v2.792H48.685c-2.868,0-5.202,2.333-5.202,5.201v12.611
		H1.061c-0.28,0-0.538,0.156-0.666,0.406c-0.129,0.249-0.108,0.549,0.055,0.777l21.774,30.67L0.449,83.878
		c-0.163,0.229-0.184,0.528-0.055,0.777c0.128,0.249,0.386,0.406,0.666,0.406h13.962c0.312,1.357,0.843,2.633,1.594,3.804
		l-1.289,1.554c-0.247,0.298-0.227,0.735,0.047,1.01l2.369,2.368c0.274,0.275,0.712,0.295,1.01,0.047l1.553-1.29
		c1.211,0.778,2.533,1.325,3.944,1.633l0.187,2.012c0.036,0.386,0.359,0.681,0.747,0.681h3.35c0.388,0,0.711-0.295,0.747-0.681
		l0.187-2.012c1.41-0.308,2.732-0.854,3.944-1.633l1.553,1.291c0.298,0.246,0.736,0.228,1.01-0.048l2.369-2.368
		c0.274-0.274,0.294-0.712,0.047-1.01l-1.289-1.553c0.751-1.172,1.282-2.448,1.594-3.805h37.357c2.867,0,5.2-2.337,5.2-5.209V67.247
		h39.987v38.959L99.356,84.322c-0.281-0.281-0.779-0.281-1.061,0l-22.573,22.573L65.025,96.198c-0.281-0.281-0.779-0.281-1.061,0
		l-20.264,20.264L28.26,101.021c-0.293-0.293-0.768-0.293-1.061,0L0,128.22l1.061,1.061l26.669-26.668l14.911,14.91L31.943,128.22
		l1.061,1.061l31.491-31.491l10.167,10.167L54.398,128.22l1.061,1.061l43.367-43.367l22.279,22.28l0.134-0.027v20.584
		c0,0.415,0.336,0.75,0.75,0.75h6.472c0.414,0,0.75-0.335,0.75-0.75v-128C129.211,0.337,128.875,0,128.461,0z M37.363,84.101
		c-0.27,1.592-0.879,3.064-1.811,4.377c-0.197,0.277-0.183,0.652,0.034,0.914l1.212,1.459l-1.402,1.402l-1.459-1.212
		c-0.262-0.217-0.637-0.232-0.914-0.034c-1.312,0.932-2.785,1.541-4.376,1.811c-0.335,0.057-0.59,0.332-0.622,0.67l-0.176,1.892
		h-1.982l-0.176-1.892c-0.032-0.338-0.287-0.613-0.622-0.67c-1.593-0.271-3.064-0.879-4.376-1.811
		c-0.277-0.197-0.65-0.184-0.914,0.034l-1.459,1.212l-1.402-1.402l1.212-1.46c0.217-0.262,0.231-0.637,0.034-0.913
		c-0.932-1.312-1.541-2.784-1.811-4.377c-0.057-0.335-0.332-0.59-0.67-0.621l-1.892-0.176v-1.982l1.892-0.176
		c0.338-0.031,0.613-0.286,0.67-0.621c0.27-1.593,0.879-3.065,1.811-4.376c0.197-0.278,0.183-0.652-0.034-0.914l-1.212-1.46
		l1.402-1.403l1.459,1.213c0.261,0.217,0.635,0.231,0.914,0.034c1.312-0.932,2.784-1.541,4.376-1.811
		c0.335-0.057,0.59-0.332,0.622-0.67l0.176-1.893h1.982l0.176,1.893c0.032,0.338,0.287,0.613,0.622,0.67
		c1.592,0.27,3.063,0.879,4.376,1.811c0.279,0.198,0.653,0.183,0.914-0.034l1.459-1.212l1.402,1.402l-1.212,1.46
		c-0.217,0.262-0.231,0.636-0.034,0.914c0.932,1.311,1.541,2.783,1.811,4.376c0.057,0.335,0.331,0.59,0.67,0.621l1.892,0.176v1.982
		l-1.892,0.176C37.695,83.511,37.42,83.766,37.363,84.101z M79.752,79.853c0,2.045-1.66,3.709-3.7,3.709H41.425v-2.924
		c0-0.388-0.295-0.711-0.681-0.746l-2.012-0.188c-0.308-1.411-0.854-2.733-1.632-3.944l1.289-1.554
		c0.247-0.299,0.227-0.735-0.047-1.01l-2.369-2.368c-0.273-0.274-0.712-0.294-1.01-0.047l-1.553,1.29
		c-1.212-0.778-2.534-1.325-3.944-1.633l-0.187-2.013c-0.036-0.386-0.359-0.681-0.747-0.681h-3.35c-0.388,0-0.711,0.295-0.747,0.681
		l-0.187,2.013c-1.41,0.308-2.732,0.854-3.944,1.633l-1.553-1.29c-0.298-0.248-0.735-0.229-1.01,0.046l-2.369,2.369
		c-0.273,0.274-0.294,0.712-0.047,1.01l1.289,1.554c-0.777,1.211-1.324,2.533-1.631,3.944l-2.013,0.187
		c-0.386,0.035-0.681,0.359-0.681,0.747v2.924H2.513l21.242-29.92c0.185-0.26,0.185-0.608,0-0.867L2.513,22.854h40.97l0.002,48.096
		h-0.002c0,2.869,2.334,5.203,5.202,5.203h27.401c0.05,0.014,0.104,0.021,0.157,0.025c1.96,0.104,3.493,1.703,3.509,3.646V79.853z
		 M79.752,76.214c-0.834-0.841-1.959-1.401-3.219-1.518c-0.078-0.028-0.162-0.043-0.25-0.043H48.685
		c-2.038,0-3.697-1.657-3.701-3.695c0-0.002,0.001-0.004,0.001-0.006c0-2.045,1.66-3.71,3.7-3.71l31.067,0.005V76.214z
		 M121.239,65.747l-72.555-0.005c-1.446,0-2.757,0.595-3.7,1.554L44.982,8.743c0-2.041,1.661-3.701,3.702-3.701h72.555V65.747z
		 M127.711,128h-4.972V1.5h4.972V128z"/>
	<g>
		<path fill="#231F20" d="M27.508,91.695l-0.104-1.496c0.308-0.021,0.61-0.061,0.907-0.115l0.273,1.475
			C28.233,91.624,27.874,91.67,27.508,91.695z M25.344,91.596c-0.36-0.058-0.714-0.138-1.061-0.235l0.41-1.443
			c0.29,0.082,0.587,0.149,0.891,0.198L25.344,91.596z M30.658,90.918l-0.607-1.372c0.279-0.123,0.551-0.263,0.812-0.416
			l0.762,1.293C31.312,90.606,30.99,90.771,30.658,90.918z M22.281,90.529c-0.317-0.177-0.622-0.372-0.916-0.583l0.875-1.217
			c0.247,0.178,0.505,0.341,0.771,0.49L22.281,90.529z M33.351,89.116l-1.033-1.088c0.221-0.209,0.429-0.432,0.622-0.665
			l1.154,0.958C33.861,88.601,33.614,88.866,33.351,89.116z M19.764,88.486c-0.237-0.272-0.46-0.56-0.664-0.858l1.236-0.849
			c0.173,0.251,0.358,0.492,0.559,0.722L19.764,88.486z M35.277,86.507l-1.342-0.67c0.136-0.271,0.256-0.551,0.36-0.84l1.41,0.512
			C35.582,85.851,35.438,86.185,35.277,86.507z M18.086,85.712c-0.131-0.336-0.242-0.682-0.334-1.035l1.453-0.375
			c0.076,0.297,0.17,0.586,0.279,0.866L18.086,85.712z M36.201,83.395l-1.49-0.169c0.034-0.3,0.052-0.604,0.052-0.913
			c-0.001-0.12-0.004-0.244-0.009-0.368l1.498-0.066c0.007,0.143,0.01,0.285,0.011,0.43C36.263,82.679,36.241,83.04,36.201,83.395z
			 M17.455,82.535c-0.002-0.078-0.003-0.156-0.002-0.233c0-0.281,0.014-0.569,0.039-0.854l1.494,0.133
			c-0.021,0.241-0.033,0.485-0.033,0.731l0.002,0.179L17.455,82.535z M34.463,80.148c-0.084-0.295-0.185-0.582-0.3-0.862
			l1.385-0.574c0.139,0.332,0.259,0.675,0.358,1.025L34.463,80.148z M19.36,79.8l-1.422-0.477c0.115-0.346,0.251-0.683,0.404-1.01
			l1.357,0.641C19.57,79.228,19.458,79.51,19.36,79.8z M33.275,77.696c-0.178-0.247-0.37-0.484-0.575-0.709l1.107-1.011
			c0.244,0.267,0.472,0.548,0.685,0.842L33.275,77.696z M20.662,77.403l-1.176-0.932c0.226-0.283,0.466-0.555,0.723-0.811
			l1.06,1.062C21.054,76.938,20.851,77.165,20.662,77.403z M31.327,75.79c-0.251-0.171-0.512-0.329-0.783-0.473l0.701-1.326
			c0.32,0.17,0.63,0.357,0.928,0.561L31.327,75.79z M22.697,75.59l-0.791-1.274c0.307-0.19,0.625-0.364,0.955-0.519l0.637,1.357
			C23.223,75.284,22.955,75.43,22.697,75.59z M28.845,74.659c-0.291-0.076-0.59-0.135-0.894-0.177l0.205-1.486
			c0.362,0.05,0.718,0.12,1.065,0.211L28.845,74.659z M25.226,74.576l-0.309-1.468c0.352-0.074,0.71-0.128,1.073-0.162l0.137,1.495
			C25.822,74.469,25.521,74.514,25.226,74.576z"/>
	</g>
	<g>
		<circle fill="#FF7058" cx="26.858" cy="82.312" r="6.87"/>
	</g>
	<g>
		<circle fill="#FFFFFF" cx="26.858" cy="82.312" r="3.434"/>
		<path fill="#231F20" d="M26.858,86.496c-2.308,0-4.185-1.876-4.185-4.184s1.877-4.185,4.185-4.185s4.185,1.877,4.185,4.185
			S29.166,86.496,26.858,86.496z M26.858,79.628c-1.48,0-2.685,1.205-2.685,2.685s1.204,2.684,2.685,2.684s2.685-1.204,2.685-2.684
			S28.339,79.628,26.858,79.628z"/>
	</g>
	<g>
		<g>
			<g>
				<line fill="#FFFFFF" x1="56.146" y1="37.015" x2="64.845" y2="37.015"/>
				<path fill="#231F20" d="M64.845,37.765h-8.698c-0.414,0-0.75-0.336-0.75-0.75s0.336-0.75,0.75-0.75h8.698
					c0.414,0,0.75,0.336,0.75,0.75S65.259,37.765,64.845,37.765z"/>
			</g>
			<g>
				<line fill="#FFFFFF" x1="64.011" y1="40.181" x2="68.266" y2="40.181"/>
				<path fill="#231F20" d="M68.266,40.931h-4.255c-0.414,0-0.75-0.336-0.75-0.75s0.336-0.75,0.75-0.75h4.255
					c0.414,0,0.75,0.336,0.75,0.75S68.68,40.931,68.266,40.931z"/>
			</g>
			<g>
				<line fill="#FFFFFF" x1="68.791" y1="37.015" x2="72.845" y2="37.015"/>
				<path fill="#231F20" d="M72.845,37.765H68.79c-0.414,0-0.75-0.336-0.75-0.75s0.336-0.75,0.75-0.75h4.055
					c0.414,0,0.75,0.336,0.75,0.75S73.259,37.765,72.845,37.765z"/>
			</g>
			<g>
				<line fill="#FFFFFF" x1="60.078" y1="40.181" x2="60.908" y2="40.181"/>
				<path fill="#231F20" d="M60.907,40.931h-0.829c-0.414,0-0.75-0.336-0.75-0.75s0.336-0.75,0.75-0.75h0.829
					c0.414,0,0.75,0.336,0.75,0.75S61.321,40.931,60.907,40.931z"/>
			</g>
		</g>
	</g>
</g>
</svg>
