<?xml version="1.0" encoding="utf-8"?>
<!-- Generator: Adobe Illustrator 15.0.0, SVG Export Plug-In . SVG Version: 6.00 Build 0)  -->
<!DOCTYPE svg PUBLIC "-//W3C//DTD SVG 1.1//EN" "http://www.w3.org/Graphics/SVG/1.1/DTD/svg11.dtd">
<svg version="1.1" id="Layer_1" xmlns="http://www.w3.org/2000/svg" xmlns:xlink="http://www.w3.org/1999/xlink" x="0px" y="0px"
	 width="130px" height="130px" viewBox="0 0 130 130" enable-background="new 0 0 130 130" xml:space="preserve">
<g>
	<path fill="#FFFFFF" d="M8.981,113.313h57.466v7.938H8.981c-2.191,0-3.968-1.777-3.968-3.969l0,0
		C5.013,115.094,6.791,113.313,8.981,113.313z"/>
	<path fill="#FFFFFF" d="M8.981,113.313h3.366v7.938H8.981c-2.19,0-3.968-1.777-3.968-3.969l0,0
		C5.013,115.094,6.791,113.313,8.981,113.313z"/>
	<polygon fill="#FFFFFF" points="66.447,121.251 76.108,117.282 66.447,113.313 	"/>
	<g>
		<path fill="#231F20" d="M123.666,6.915c-0.193,0-0.385-0.074-0.532-0.22c-0.294-0.294-0.294-0.771,0-1.065l1.315-1.316
			c0.295-0.294,0.771-0.294,1.065,0c0.294,0.293,0.294,0.771,0,1.065l-1.315,1.316C124.052,6.841,123.86,6.915,123.666,6.915z"/>
	</g>
	<g>
		<path fill="#231F20" d="M119.545,11.034c-0.191,0-0.383-0.073-0.53-0.22c-0.296-0.294-0.296-0.771,0-1.064l1.316-1.316
			c0.294-0.294,0.771-0.292,1.063,0c0.295,0.294,0.295,0.771,0,1.066l-1.316,1.315C119.931,10.961,119.738,11.034,119.545,11.034z"
			/>
	</g>
	<g>
		<path fill="#231F20" d="M124.982,11.034c-0.194,0-0.386-0.073-0.533-0.22l-1.315-1.315c-0.294-0.295-0.294-0.771,0-1.065
			c0.294-0.294,0.771-0.294,1.065,0l1.315,1.316c0.294,0.293,0.294,0.77,0,1.064C125.367,10.961,125.176,11.034,124.982,11.034z"/>
	</g>
	<g>
		<path fill="#231F20" d="M120.863,6.914c-0.192,0-0.385-0.073-0.532-0.219l-1.316-1.316c-0.296-0.295-0.296-0.771,0-1.065
			c0.293-0.293,0.769-0.294,1.063,0l1.316,1.316c0.295,0.294,0.295,0.771,0,1.065C121.247,6.841,121.056,6.914,120.863,6.914z"/>
	</g>
	<g>
		<path fill="#231F20" d="M53.004,100.659c-0.193,0-0.385-0.074-0.532-0.221c-0.294-0.292-0.294-0.77,0-1.064l1.317-1.315
			c0.293-0.297,0.77-0.294,1.063,0c0.294,0.295,0.294,0.77,0,1.064l-1.316,1.315C53.39,100.585,53.196,100.659,53.004,100.659z"/>
	</g>
	<g>
		<path fill="#231F20" d="M48.885,104.78c-0.193,0-0.385-0.074-0.533-0.222c-0.293-0.294-0.293-0.771,0-1.066l1.316-1.314
			c0.295-0.292,0.77-0.292,1.064,0c0.294,0.294,0.294,0.771,0,1.063l-1.315,1.317C49.27,104.706,49.078,104.78,48.885,104.78z"/>
	</g>
	<g>
		<path fill="#231F20" d="M54.32,104.78c-0.192,0-0.385-0.074-0.531-0.222l-1.317-1.317c-0.294-0.292-0.294-0.77,0-1.063
			c0.294-0.292,0.771-0.292,1.064,0l1.316,1.314c0.294,0.295,0.294,0.772,0,1.066C54.706,104.706,54.514,104.78,54.32,104.78z"/>
	</g>
	<g>
		<path fill="#231F20" d="M50.2,100.659c-0.193,0-0.385-0.074-0.532-0.221l-1.316-1.315c-0.293-0.295-0.293-0.77,0-1.064
			c0.295-0.297,0.772-0.294,1.065,0l1.315,1.315c0.294,0.295,0.294,0.772,0,1.064C50.586,100.585,50.393,100.659,50.2,100.659z"/>
	</g>
	<g>
		<path fill="#231F20" d="M10.23,8.975c-0.193,0-0.385-0.073-0.532-0.221c-0.294-0.294-0.294-0.771,0-1.064l1.317-1.316
			c0.294-0.295,0.771-0.294,1.064,0s0.294,0.771,0,1.064l-1.316,1.316C10.615,8.902,10.422,8.975,10.23,8.975z"/>
	</g>
	<g>
		<path fill="#231F20" d="M6.11,13.094c-0.193,0-0.385-0.073-0.532-0.22c-0.294-0.294-0.294-0.771,0-1.065l1.315-1.316
			c0.295-0.294,0.771-0.294,1.065,0c0.294,0.293,0.294,0.771,0,1.065l-1.316,1.316C6.496,13.021,6.304,13.094,6.11,13.094z"/>
	</g>
	<g>
		<path fill="#231F20" d="M11.546,13.094c-0.193,0-0.385-0.073-0.532-0.22l-1.317-1.316c-0.294-0.294-0.294-0.771,0-1.065
			c0.294-0.294,0.771-0.294,1.065,0l1.316,1.316c0.294,0.294,0.294,0.771,0,1.065C11.932,13.021,11.74,13.094,11.546,13.094z"/>
	</g>
	<g>
		<path fill="#231F20" d="M7.426,8.975c-0.193,0-0.386-0.073-0.533-0.221L5.579,7.438c-0.294-0.294-0.294-0.771,0-1.064
			c0.294-0.295,0.771-0.294,1.064,0l1.316,1.316c0.294,0.294,0.294,0.771,0,1.064C7.812,8.902,7.619,8.975,7.426,8.975z"/>
	</g>
	<polygon fill="#E6E9EE" points="24.375,21.714 10.372,21.714 24.375,78.482 	"/>
	<polygon fill="#E6E9EE" points="75.448,78.482 45.671,78.482 49.98,83.849 71.139,83.849 	"/>
	<g>
		<polygon fill="#E6E9EE" points="96.743,21.714 110.748,21.714 96.743,78.482 		"/>
	</g>
	<g>
		<path fill="#FFFFFF" d="M96.743,70.609V1.945c0-1.21-0.98-2.192-2.191-2.192H26.568c-1.21,0-2.193,0.976-2.193,2.187
			c0,3.511,0,49.545,0,68.669H96.743z"/>
	</g>
	<g>
		<path fill="#E6E9EE" d="M96.743,17.583V1.945c0-1.21-0.98-2.192-2.191-2.192H26.567c-1.21,0-2.192,0.981-2.192,2.192v15.638
			H96.743z"/>
	</g>
	<g>
		<path fill="#54C0EB" d="M96.743,1.941v6.283H46.397l-1.541-4.237H32.157l-1.541,4.237h-6.241V1.941
			c0-1.21,0.981-2.191,2.193-2.191h67.984C95.763-0.25,96.743,0.731,96.743,1.941z"/>
	</g>
	<g>
		<polygon fill="#CED5E0" points="62.175,8.224 46.396,8.224 47.937,3.988 60.633,3.988 		"/>
	</g>
	<g>
		<rect x="34.916" y="10.464" fill="#FFFFFF" width="49.397" height="5.104"/>
	</g>
	<g>
		<path fill="#324A5E" d="M36.575,11.778h0.296v1.018h0.006c0.047-0.084,0.122-0.158,0.214-0.209
			c0.086-0.05,0.192-0.084,0.302-0.084c0.22,0,0.57,0.135,0.57,0.697v0.971h-0.296v-0.937c0-0.263-0.098-0.485-0.378-0.485
			c-0.192,0-0.344,0.135-0.398,0.297c-0.016,0.04-0.02,0.084-0.02,0.141v0.984h-0.296V11.778z"/>
		<path fill="#324A5E" d="M38.787,12.072v0.468h0.425v0.226h-0.425v0.88c0,0.202,0.059,0.316,0.223,0.316
			c0.077,0,0.136-0.01,0.173-0.02l0.011,0.222c-0.056,0.024-0.146,0.041-0.262,0.041c-0.138,0-0.25-0.044-0.32-0.125
			c-0.084-0.087-0.114-0.232-0.114-0.425v-0.89h-0.253V12.54h0.253v-0.391L38.787,12.072z"/>
		<path fill="#324A5E" d="M39.902,12.072v0.468h0.424v0.226h-0.424v0.88c0,0.202,0.057,0.316,0.222,0.316
			c0.079,0,0.135-0.01,0.172-0.02l0.014,0.222c-0.057,0.024-0.149,0.041-0.263,0.041c-0.139,0-0.249-0.044-0.319-0.125
			c-0.084-0.087-0.116-0.232-0.116-0.425v-0.89h-0.253V12.54h0.253v-0.391L39.902,12.072z"/>
		<path fill="#324A5E" d="M40.66,13.073c0-0.209-0.006-0.377-0.014-0.533h0.267l0.014,0.28h0.005c0.122-0.2,0.314-0.317,0.581-0.317
			c0.394,0,0.689,0.333,0.689,0.829c0,0.586-0.357,0.877-0.74,0.877c-0.216,0-0.404-0.095-0.503-0.256h-0.005v0.886H40.66V13.073z
			 M40.954,13.508c0,0.043,0.005,0.083,0.013,0.121c0.053,0.206,0.232,0.347,0.445,0.347c0.312,0,0.494-0.256,0.494-0.63
			c0-0.327-0.17-0.607-0.484-0.607c-0.202,0-0.392,0.145-0.449,0.367c-0.01,0.037-0.019,0.081-0.019,0.122V13.508z"/>
		<path fill="#324A5E" d="M42.506,12.81c0-0.125,0.085-0.213,0.203-0.213c0.118,0,0.194,0.088,0.198,0.213
			c0,0.117-0.077,0.208-0.202,0.208C42.586,13.019,42.506,12.927,42.506,12.81z M42.506,13.999c0-0.125,0.085-0.212,0.203-0.212
			c0.118,0,0.194,0.087,0.198,0.212c0,0.119-0.077,0.209-0.202,0.209C42.586,14.208,42.506,14.118,42.506,13.999z"/>
		<path fill="#324A5E" d="M43.024,14.306l0.941-2.444h0.227l-0.943,2.444H43.024z"/>
		<path fill="#324A5E" d="M44.179,14.306l0.941-2.444h0.227l-0.943,2.444H44.179z"/>
		<path fill="#324A5E" d="M46.414,12.54l0.215,0.829c0.048,0.183,0.093,0.351,0.122,0.52h0.009c0.038-0.165,0.093-0.341,0.146-0.516
			l0.267-0.833h0.249l0.253,0.815c0.061,0.196,0.108,0.368,0.145,0.533h0.01c0.027-0.165,0.07-0.337,0.125-0.53l0.231-0.819h0.294
			l-0.525,1.631h-0.271l-0.249-0.778c-0.057-0.182-0.104-0.344-0.146-0.536h-0.005c-0.041,0.195-0.093,0.364-0.149,0.539
			l-0.263,0.775h-0.269l-0.492-1.631H46.414z"/>
		<path fill="#324A5E" d="M48.934,12.54l0.216,0.829c0.047,0.183,0.092,0.351,0.121,0.52h0.01c0.038-0.165,0.092-0.341,0.145-0.516
			l0.267-0.833h0.25l0.252,0.815c0.061,0.196,0.108,0.368,0.146,0.533h0.009c0.028-0.165,0.071-0.337,0.125-0.53l0.232-0.819H51
			l-0.526,1.631h-0.27l-0.25-0.778c-0.057-0.182-0.104-0.344-0.145-0.536h-0.007c-0.041,0.195-0.092,0.364-0.148,0.539l-0.263,0.775
			h-0.269l-0.493-1.631H48.934z"/>
		<path fill="#324A5E" d="M51.453,12.54l0.216,0.829c0.047,0.183,0.09,0.351,0.122,0.52H51.8c0.038-0.165,0.09-0.341,0.145-0.516
			l0.267-0.833h0.249l0.254,0.815c0.06,0.196,0.106,0.368,0.145,0.533h0.009c0.028-0.165,0.071-0.337,0.124-0.53l0.233-0.819h0.292
			l-0.525,1.631h-0.269l-0.249-0.778c-0.06-0.182-0.105-0.344-0.145-0.536h-0.009c-0.039,0.195-0.09,0.364-0.146,0.539l-0.263,0.775
			h-0.271l-0.492-1.631H51.453z"/>
		<path fill="#324A5E" d="M53.612,13.996c0-0.125,0.083-0.212,0.201-0.212s0.201,0.088,0.201,0.212c0,0.122-0.079,0.213-0.203,0.213
			C53.692,14.208,53.612,14.118,53.612,13.996z"/>
	</g>
	<g>
		<rect x="29.922" y="21.61" fill="#FFD05B" width="61.275" height="21.768"/>
	</g>
	<g>
		<rect x="32.237" y="48.646" fill="#231F20" width="24.363" height="1.506"/>
	</g>
	<g>
		<rect x="64.521" y="48.646" fill="#231F20" width="24.361" height="1.506"/>
	</g>
	<g>
		<rect x="32.237" y="53.807" fill="#231F20" width="24.363" height="1.506"/>
	</g>
	<g>
		<rect x="64.521" y="53.807" fill="#231F20" width="24.361" height="1.506"/>
	</g>
	<g>
		<rect x="32.237" y="58.967" fill="#231F20" width="24.363" height="1.505"/>
	</g>
	<g>
		<rect x="64.521" y="58.967" fill="#231F20" width="24.361" height="1.505"/>
	</g>
	<g>
		<rect x="32.237" y="64.126" fill="#231F20" width="24.363" height="1.507"/>
	</g>
	<g>
		<rect x="64.521" y="64.126" fill="#231F20" width="24.361" height="1.507"/>
	</g>
	<g>
		<rect x="32.237" y="69.286" fill="#231F20" width="16.648" height="1.506"/>
	</g>
	<g>
		<rect x="64.521" y="69.286" fill="#231F20" width="16.647" height="1.506"/>
	</g>
	<path fill="#FFFFFF" d="M90.114,128.246h31.062c2.668,0,4.834-2.163,4.834-4.832v-49.72c0-2.669-2.166-4.835-4.834-4.835H90.114
		c-2.668,0-4.833,2.166-4.833,4.835v49.72C85.281,126.083,87.446,128.246,90.114,128.246z"/>
	<g>
		<path fill="#231F20" d="M76.395,116.587l-9.661-3.969c-0.008-0.005-0.018,0-0.025-0.005c-0.083-0.028-0.169-0.051-0.261-0.051
			H8.981c-2.603,0-4.721,2.117-4.721,4.72c0,2.605,2.118,4.723,4.721,4.723h57.466c0.097,0,0.193-0.018,0.286-0.056l9.661-3.969
			c0.282-0.117,0.467-0.391,0.467-0.698C76.861,116.978,76.677,116.703,76.395,116.587z M11.595,120.499H8.981
			c-1.773,0-3.216-1.442-3.216-3.217c0-1.772,1.443-3.215,3.216-3.215h2.614V120.499z M65.694,120.499H13.101v-2.463h52.594V120.499
			z M65.694,116.53H13.101v-2.463h52.594V116.53z M67.199,120.129v-5.69l6.929,2.844L67.199,120.129z"/>
		<path fill="#231F20" d="M121.177,68.108h-8.132V23.694c0-1.508-1.228-2.733-2.734-2.733H97.497V1.945
			C97.497,0.321,96.176-1,94.552-1H26.568c-1.624,0-2.945,1.319-2.945,2.94v19.021H10.809c-1.508,0-2.733,1.226-2.733,2.733v54.034
			H1.753C1.337,77.729,1,78.066,1,78.482v3.749c0,4.265,3.471,7.738,7.736,7.738h75.793v33.441c0,3.083,2.506,5.589,5.585,5.589
			h31.062c3.079,0,5.587-2.506,5.587-5.589V73.694C126.764,70.614,124.256,68.108,121.177,68.108z M86.034,116.716V77.068h39.224
			v39.647H86.034z M97.497,22.467h12.813c0.678,0,1.228,0.55,1.228,1.228v44.414H97.497V22.467z M121.177,69.614
			c2.249,0,4.081,1.83,4.081,4.08v1.868H86.034v-1.868c0-2.25,1.831-4.08,4.08-4.08H121.177z M25.129,1.94
			c0-0.791,0.646-1.435,1.439-1.435h67.984c0.793,0,1.438,0.646,1.438,1.439v66.163h-5.876c-3.079,0-5.585,2.506-5.585,5.586v4.034
			h-59.4V1.94z M9.582,23.694c0-0.677,0.55-1.228,1.228-1.228h12.813v55.262H9.582V23.694z M8.736,88.464
			c-3.435,0-6.23-2.796-6.23-6.232v-2.997h82.023v9.229H8.736z M121.177,127.494H90.114c-2.249,0-4.08-1.83-4.08-4.083v-5.189
			h39.224v5.189C125.258,125.664,123.426,127.494,121.177,127.494z"/>
	</g>
	<g>
		<line fill="#FFFFFF" x1="99.139" y1="72.864" x2="112.154" y2="72.864"/>
		<path fill="#231F20" d="M112.154,73.618H99.139c-0.415,0-0.753-0.338-0.753-0.754c0-0.415,0.338-0.752,0.753-0.752h13.016
			c0.415,0,0.752,0.337,0.752,0.752C112.906,73.28,112.569,73.618,112.154,73.618z"/>
	</g>
	<circle fill="#FFFFFF" cx="105.646" cy="122.619" r="2.67"/>
	<path fill="#231F20" d="M105.646,126.042c-1.888,0-3.423-1.536-3.423-3.423s1.535-3.423,3.423-3.423s3.422,1.536,3.422,3.423
		S107.534,126.042,105.646,126.042z M105.646,120.702c-1.058,0-1.917,0.861-1.917,1.917c0,1.057,0.859,1.917,1.917,1.917
		s1.917-0.86,1.917-1.917C107.563,121.563,106.704,120.702,105.646,120.702z"/>
	<rect x="89.028" y="79.885" fill="#84DBFF" width="33.236" height="12.588"/>
	<line fill="#FFFFFF" x1="89.028" y1="96.03" x2="122.265" y2="96.03"/>
	<rect x="89.028" y="95.276" fill="#231F20" width="33.236" height="1.506"/>
	<line fill="#FFFFFF" x1="89.028" y1="100.636" x2="122.265" y2="100.636"/>
	<rect x="89.028" y="99.882" fill="#231F20" width="33.236" height="1.506"/>
	<line fill="#FFFFFF" x1="89.028" y1="105.242" x2="122.265" y2="105.242"/>
	<rect x="89.028" y="104.49" fill="#231F20" width="33.236" height="1.506"/>
	<line fill="#FFFFFF" x1="89.028" y1="109.851" x2="112.291" y2="109.851"/>
	<rect x="89.028" y="109.097" fill="#231F20" width="23.263" height="1.505"/>
</g>
</svg>
