<?xml version="1.0" encoding="utf-8"?>
<!-- Generator: Adobe Illustrator 15.0.0, SVG Export Plug-In . SVG Version: 6.00 Build 0)  -->
<!DOCTYPE svg PUBLIC "-//W3C//DTD SVG 1.1//EN" "http://www.w3.org/Graphics/SVG/1.1/DTD/svg11.dtd">
<svg version="1.1" id="Layer_1" xmlns="http://www.w3.org/2000/svg" xmlns:xlink="http://www.w3.org/1999/xlink" x="0px" y="0px"
	 width="130px" height="130px" viewBox="0 0 130 130" enable-background="new 0 0 130 130" xml:space="preserve">
<g>
	<path fill="#FFD05B" d="M71.354,96.201l-7.038-5.038l7.016-4.415l6.256,2.234l16.799-9.346c1.807-1.005,3.852-1.537,5.914-1.537
		c2.791,0,5.485,0.963,7.635,2.688L95.076,92.063l-15.905,4.138H71.354z"/>
	<polygon fill="#FFFFFF" points="94.145,0.503 94.145,84.948 110.99,84.948 110.99,62.578 97.623,0.503 	"/>
	<rect x="88.834" y="9.476" fill="#FFFFFF" width="5.311" height="75.473"/>
	<rect x="45.777" y="20.281" fill="#FFFFFF" width="8.754" height="64.667"/>
	<g>
		<rect x="47.783" y="22.286" fill="#E6E9EE" width="4.744" height="60.657"/>
	</g>
	<rect x="54.531" y="26.791" fill="#FFFFFF" width="9.765" height="58.157"/>
	<g>
		<rect x="56.537" y="28.796" fill="#E6E9EE" width="5.755" height="54.147"/>
	</g>
	<rect x="59.414" y="50.879" fill="#FFFFFF" width="23.979" height="34.069"/>
	<g>
		<rect x="61.419" y="52.884" fill="#FF7058" width="19.97" height="30.06"/>
	</g>
	<polygon fill="#FFFFFF" points="48.455,20.281 48.455,13.337 59.414,13.337 59.414,26.791 54.531,26.791 54.531,20.281 	"/>
	<g>
		<polygon fill="#E6E9EE" points="56.537,24.786 56.537,18.275 50.46,18.275 50.46,15.342 57.409,15.342 57.409,24.786 		"/>
	</g>
	<g>
		<rect x="63.471" y="54.627" fill="#FFFFFF" width="1.85" height="1.5"/>
	</g>
	<g>
		<rect x="68.069" y="54.627" fill="#FFFFFF" width="1.85" height="1.5"/>
	</g>
	<g>
		<rect x="72.667" y="54.627" fill="#FFFFFF" width="1.851" height="1.5"/>
	</g>
	<g>
		<rect x="77.266" y="54.627" fill="#FFFFFF" width="1.85" height="1.5"/>
	</g>
	<g>
		<rect x="63.471" y="58.471" fill="#FFFFFF" width="1.85" height="1.5"/>
	</g>
	<g>
		<rect x="68.069" y="58.471" fill="#FFFFFF" width="1.85" height="1.5"/>
	</g>
	<g>
		<rect x="72.667" y="58.471" fill="#FFFFFF" width="1.851" height="1.5"/>
	</g>
	<g>
		<rect x="77.266" y="58.471" fill="#FFFFFF" width="1.85" height="1.5"/>
	</g>
	<g>
		<rect x="63.471" y="62.314" fill="#FFFFFF" width="1.85" height="1.5"/>
	</g>
	<g>
		<rect x="68.069" y="62.314" fill="#FFFFFF" width="1.85" height="1.5"/>
	</g>
	<g>
		<rect x="72.667" y="62.314" fill="#FFFFFF" width="1.851" height="1.5"/>
	</g>
	<g>
		<rect x="77.266" y="62.314" fill="#FFFFFF" width="1.85" height="1.5"/>
	</g>
	<g>
		<rect x="63.471" y="66.158" fill="#FFFFFF" width="1.85" height="1.5"/>
	</g>
	<g>
		<rect x="68.069" y="66.158" fill="#FFFFFF" width="1.85" height="1.5"/>
	</g>
	<g>
		<rect x="72.667" y="66.158" fill="#FFFFFF" width="1.851" height="1.5"/>
	</g>
	<g>
		<rect x="77.266" y="66.158" fill="#FFFFFF" width="1.85" height="1.5"/>
	</g>
	<g>
		<rect x="63.471" y="70.002" fill="#FFFFFF" width="1.85" height="1.5"/>
	</g>
	<g>
		<rect x="68.069" y="70.002" fill="#FFFFFF" width="1.85" height="1.5"/>
	</g>
	<g>
		<rect x="72.667" y="70.002" fill="#FFFFFF" width="1.851" height="1.5"/>
	</g>
	<g>
		<rect x="77.266" y="70.002" fill="#FFFFFF" width="1.85" height="1.5"/>
	</g>
	<g>
		<rect x="63.471" y="73.846" fill="#FFFFFF" width="1.85" height="1.5"/>
	</g>
	<g>
		<rect x="68.069" y="73.846" fill="#FFFFFF" width="1.85" height="1.5"/>
	</g>
	<g>
		<rect x="72.667" y="73.846" fill="#FFFFFF" width="1.851" height="1.5"/>
	</g>
	<g>
		<rect x="77.266" y="73.846" fill="#FFFFFF" width="1.85" height="1.5"/>
	</g>
	<rect x="97.219" y="11.847" fill="#231F20" width="3.009" height="1.5"/>
	<rect x="97.219" y="19.531" fill="#231F20" width="4.814" height="1.5"/>
	<rect x="97.219" y="27.215" fill="#231F20" width="6.318" height="1.5"/>
	<g>
		<path fill="#231F20" d="M16.803,11.972c-0.192,0-0.384-0.073-0.53-0.22c-0.293-0.293-0.293-0.768,0-1.061l1.29-1.29
			c0.293-0.293,0.768-0.293,1.061,0s0.293,0.768,0,1.061l-1.29,1.29C17.187,11.898,16.995,11.972,16.803,11.972z"/>
	</g>
	<g>
		<path fill="#231F20" d="M12.764,16.011c-0.192,0-0.384-0.073-0.53-0.22c-0.293-0.293-0.293-0.768,0-1.061l1.29-1.29
			c0.293-0.293,0.768-0.293,1.061,0s0.293,0.768,0,1.061l-1.29,1.29C13.147,15.938,12.956,16.011,12.764,16.011z"/>
	</g>
	<g>
		<path fill="#231F20" d="M18.093,16.011c-0.192,0-0.384-0.073-0.53-0.22l-1.29-1.29c-0.293-0.293-0.293-0.768,0-1.061
			s0.768-0.293,1.061,0l1.29,1.29c0.293,0.293,0.293,0.768,0,1.061C18.477,15.938,18.285,16.011,18.093,16.011z"/>
	</g>
	<g>
		<path fill="#231F20" d="M14.054,11.972c-0.192,0-0.384-0.073-0.53-0.22l-1.29-1.29c-0.293-0.293-0.293-0.768,0-1.061
			s0.768-0.293,1.061,0l1.29,1.29c0.293,0.293,0.293,0.768,0,1.061C14.438,11.898,14.246,11.972,14.054,11.972z"/>
	</g>
	<g>
		<path fill="#231F20" d="M117.91,12.712c-0.191,0-0.383-0.073-0.529-0.22c-0.293-0.293-0.293-0.768,0-1.061l1.289-1.29
			c0.293-0.293,0.768-0.293,1.061,0s0.293,0.768,0,1.061l-1.289,1.29C118.295,12.639,118.103,12.712,117.91,12.712z"/>
	</g>
	<g>
		<path fill="#231F20" d="M113.872,16.751c-0.192,0-0.384-0.073-0.53-0.22c-0.293-0.293-0.293-0.768,0-1.061l1.29-1.29
			c0.293-0.293,0.768-0.293,1.061,0s0.293,0.768,0,1.061l-1.29,1.29C114.256,16.678,114.064,16.751,113.872,16.751z"/>
	</g>
	<g>
		<path fill="#231F20" d="M119.201,16.751c-0.191,0-0.384-0.073-0.53-0.22l-1.29-1.29c-0.293-0.293-0.293-0.768,0-1.061
			s0.768-0.293,1.061,0l1.29,1.29c0.293,0.293,0.293,0.768,0,1.061C119.585,16.678,119.393,16.751,119.201,16.751z"/>
	</g>
	<g>
		<path fill="#231F20" d="M115.162,12.712c-0.191,0-0.384-0.073-0.53-0.22l-1.29-1.29c-0.293-0.293-0.293-0.768,0-1.061
			s0.768-0.293,1.061,0l1.29,1.29c0.293,0.293,0.293,0.768,0,1.061C115.546,12.639,115.354,12.712,115.162,12.712z"/>
	</g>
	<g>
		<path fill="#231F20" d="M24.551,55.932c-0.192,0-0.384-0.073-0.53-0.22c-0.293-0.293-0.293-0.768,0-1.061l1.291-1.29
			c0.293-0.293,0.768-0.293,1.061,0s0.293,0.768,0,1.061l-1.291,1.29C24.935,55.858,24.743,55.932,24.551,55.932z"/>
	</g>
	<g>
		<path fill="#231F20" d="M20.513,59.971c-0.192,0-0.384-0.073-0.53-0.22c-0.293-0.293-0.293-0.768,0-1.061l1.29-1.29
			c0.293-0.293,0.768-0.293,1.061,0s0.293,0.768,0,1.061l-1.29,1.29C20.896,59.897,20.705,59.971,20.513,59.971z"/>
	</g>
	<g>
		<path fill="#231F20" d="M25.842,59.971c-0.192,0-0.384-0.073-0.53-0.22l-1.291-1.29c-0.293-0.293-0.293-0.768,0-1.061
			s0.768-0.293,1.061,0l1.291,1.29c0.293,0.293,0.293,0.768,0,1.061C26.226,59.897,26.034,59.971,25.842,59.971z"/>
	</g>
	<g>
		<path fill="#231F20" d="M21.803,55.932c-0.192,0-0.384-0.073-0.53-0.22l-1.29-1.29c-0.293-0.293-0.293-0.768,0-1.061
			s0.768-0.293,1.061,0l1.29,1.29c0.293,0.293,0.293,0.768,0,1.061C22.187,55.858,21.995,55.932,21.803,55.932z"/>
	</g>
	<g>
		<path fill="#231F20" d="M20.839,44.352h-8.113c-0.414,0-0.75-0.336-0.75-0.75s0.336-0.75,0.75-0.75h8.113
			c0.414,0,0.75,0.336,0.75,0.75S21.253,44.352,20.839,44.352z"/>
	</g>
	<g>
		<path fill="#231F20" d="M24.029,47.305h-3.968c-0.414,0-0.75-0.336-0.75-0.75s0.336-0.75,0.75-0.75h3.968
			c0.414,0,0.75,0.336,0.75,0.75S24.443,47.305,24.029,47.305z"/>
	</g>
	<g>
		<path fill="#231F20" d="M28.3,44.352h-3.781c-0.414,0-0.75-0.336-0.75-0.75s0.336-0.75,0.75-0.75H28.3
			c0.414,0,0.75,0.336,0.75,0.75S28.714,44.352,28.3,44.352z"/>
	</g>
	<g>
		<path fill="#231F20" d="M17.166,47.305h-0.773c-0.414,0-0.75-0.336-0.75-0.75s0.336-0.75,0.75-0.75h0.773
			c0.414,0,0.75,0.336,0.75,0.75S17.58,47.305,17.166,47.305z"/>
	</g>
	<g>
		<path fill="#231F20" d="M118.236,30.804h-8.113c-0.414,0-0.75-0.336-0.75-0.75s0.336-0.75,0.75-0.75h8.113
			c0.414,0,0.75,0.336,0.75,0.75S118.65,30.804,118.236,30.804z"/>
	</g>
	<g>
		<path fill="#231F20" d="M121.427,33.757h-3.968c-0.414,0-0.75-0.336-0.75-0.75s0.336-0.75,0.75-0.75h3.968
			c0.414,0,0.75,0.336,0.75,0.75S121.841,33.757,121.427,33.757z"/>
	</g>
	<g>
		<path fill="#231F20" d="M125.697,30.804h-3.781c-0.414,0-0.75-0.336-0.75-0.75s0.336-0.75,0.75-0.75h3.781
			c0.414,0,0.75,0.336,0.75,0.75S126.111,30.804,125.697,30.804z"/>
	</g>
	<g>
		<path fill="#231F20" d="M114.564,33.757h-0.773c-0.414,0-0.75-0.336-0.75-0.75s0.336-0.75,0.75-0.75h0.773
			c0.414,0,0.75,0.336,0.75,0.75S114.979,33.757,114.564,33.757z"/>
	</g>
	<path fill="#FFFFFF" d="M52.46,92.771c-1.069,0-1.935,0.866-1.935,1.935s0.866,1.935,1.935,1.935h13.046v-3.869H52.46z"/>
	<path fill="#231F20" d="M65.506,95.451H52.46c-0.414,0-0.75-0.336-0.75-0.75s0.336-0.75,0.75-0.75h13.046
		c0.414,0,0.75,0.336,0.75,0.75S65.92,95.451,65.506,95.451z"/>
	<path fill="#FFFFFF" d="M108.469,81.928L85.792,94.701H65.506c7.281,0,13.183-5.902,13.183-13.183H33.882l-15.3,16.036v24.414
		h13.146c1.365,0,2.726-0.149,4.058-0.445l48.271-10.728c4.884-1.084,9.47-3.229,13.436-6.278l28.7-22.077
		C120.835,79.002,114.016,78.805,108.469,81.928z"/>
	<path fill="#FFD05B" d="M20.513,120.038v-21.71L34.708,83.45h41.882c-0.919,5.287-5.54,9.32-11.085,9.32v3.862h20.793
		l23.119-13.022c2.281-1.284,4.869-1.963,7.486-1.963c1.971,0,3.904,0.379,5.711,1.107l-26.301,20.233
		c-3.717,2.857-8.101,4.906-12.677,5.923l-48.271,10.728c-1.195,0.265-2.418,0.399-3.639,0.399H20.513z"/>
	<line fill="#FFFFFF" x1="100.378" y1="84.948" x2="80.866" y2="84.948"/>
	<path fill="#231F20" d="M126.598,81.81c-2.898-1.86-6.25-2.844-9.693-2.844c-1.754,0-3.493,0.268-5.164,0.771V62.498L98.356,0.345
		l-0.128-0.592h-4.834v8.973h-5.311v71.35l-3.941,2.192V50.129H65.046V26.041h-4.882V12.587h-5.479V0.503h-1.5v12.084h-5.479v6.944
		h-2.678v61.237H33.882c-0.205,0-0.401,0.084-0.542,0.232L19.332,95.683v-3.903c0-0.414-0.336-0.75-0.75-0.75H2.6
		c-0.414,0-0.75,0.336-0.75,0.75v36.724c0,0.414,0.336,0.75,0.75,0.75h15.982c0.414,0,0.75-0.336,0.75-0.75v-5.784h12.396
		c1.417,0,2.837-0.156,4.221-0.463l48.271-10.728c4.954-1.1,9.701-3.318,13.73-6.415l28.701-22.078
		c0.193-0.149,0.302-0.383,0.291-0.627C126.932,82.165,126.803,81.941,126.598,81.81z M17.832,127.753H3.35V92.529h14.482V127.753z
		 M94.895,1.253h2.123l7.245,33.646h-7.044v1.5h7.367l1.332,6.185h-8.699v1.5h9.021l1.332,6.185H97.219v1.5h10.677l1.331,6.185
		H97.219v1.5h12.331l0.69,3.205v2.979H97.219v1.5h13.021v6.185H97.219v1.5h13.021v5.432c-0.732,0.293-1.449,0.633-2.139,1.021
		l-5.191,2.924h-8.016V1.253z M100.247,85.698l-14.651,8.253H71.791c3.316-1.684,5.865-4.657,7-8.253H100.247z M89.584,10.226h3.811
		v73.973h-3.811V10.226z M88.084,81.791v2.407h-3.941v-0.215L88.084,81.791z M82.643,51.629v32.569h-3.471
		c0.17-0.868,0.267-1.763,0.267-2.68c0-0.414-0.336-0.75-0.75-0.75H60.164v-29.14H82.643z M63.546,27.541v22.588h-4.882v30.64
		h-3.383V27.541H63.546z M49.205,14.087h9.459v11.954h-3.383v-6.51h-6.076V14.087z M46.527,21.031h7.254v59.737h-7.254V21.031z
		 M97.035,103.924c-3.855,2.965-8.4,5.088-13.141,6.14l-48.271,10.728c-1.277,0.284-2.588,0.428-3.896,0.428H19.332V97.855
		l14.871-15.587h43.713c-0.389,6.508-5.807,11.683-12.41,11.683c-0.414,0-0.75,0.336-0.75,0.75s0.336,0.75,0.75,0.75h20.286
		c0.129,0,0.256-0.033,0.368-0.097l22.678-12.773c2.457-1.384,5.246-2.115,8.066-2.115c2.795,0,5.523,0.707,7.957,2.053
		L97.035,103.924z"/>
	<path fill="#231F20" d="M10.59,124.949c-2.054,0-3.725-1.671-3.725-3.725c0-2.055,1.671-3.726,3.725-3.726s3.725,1.671,3.725,3.726
		C14.315,123.278,12.645,124.949,10.59,124.949z M10.59,118.999c-1.227,0-2.225,0.998-2.225,2.226c0,1.227,0.998,2.225,2.225,2.225
		s2.225-0.998,2.225-2.225C12.815,119.997,11.817,118.999,10.59,118.999z"/>
	<circle fill="#54C0EB" cx="74.284" cy="16.001" r="1.828"/>
	<circle fill="#FF7058" cx="32.418" cy="17.078" r="1.587"/>
	<circle fill="#CED5E0" cx="12.904" cy="76.674" r="2.603"/>
</g>
</svg>
