<?xml version="1.0" encoding="utf-8"?>
<!-- Generator: Adobe Illustrator 15.0.0, SVG Export Plug-In . SVG Version: 6.00 Build 0)  -->
<!DOCTYPE svg PUBLIC "-//W3C//DTD SVG 1.1//EN" "http://www.w3.org/Graphics/SVG/1.1/DTD/svg11.dtd">
<svg version="1.1" id="Layer_1" xmlns="http://www.w3.org/2000/svg" xmlns:xlink="http://www.w3.org/1999/xlink" x="0px" y="0px"
	 width="130px" height="130px" viewBox="0 0 130 130" enable-background="new 0 0 130 130" xml:space="preserve">
<g>
	<g>
		<circle fill="#FFFFFF" cx="24.003" cy="24.977" r="13.775"/>
		<g>
			<circle fill="#FF7058" cx="23.999" cy="24.977" r="3.757"/>
		</g>
		<path fill="#231F20" d="M24.003,10.452c-3.736,0-7.136,1.43-9.712,3.756l-3.243-3.243l0.605-4.284
			c0.033-0.233-0.045-0.469-0.212-0.636l-5.35-5.35C5.891,0.494,5.588,0.424,5.324,0.515C5.055,0.605,4.858,0.84,4.819,1.121
			L4.24,5.217l-4.098,0.58c-0.281,0.039-0.516,0.234-0.605,0.504c-0.091,0.27-0.021,0.567,0.181,0.769l5.35,5.35
			c0.142,0.142,0.333,0.22,0.53,0.22c0.035,0,0.07-0.003,0.105-0.008l4.284-0.605l3.243,3.243c-2.323,2.576-3.752,5.974-3.752,9.708
			c0,8.009,6.516,14.524,14.524,14.524s14.524-6.516,14.524-14.524S32.012,10.452,24.003,10.452z M6.094,2.818l4.022,4.023
			L9.721,9.638L5.698,5.615L6.094,2.818z M5.863,11.094L1.841,7.071l2.797-0.396l4.022,4.022L5.863,11.094z M24.003,38.001
			c-7.182,0-13.024-5.843-13.024-13.024c0-3.32,1.26-6.345,3.312-8.647l1.52,1.521c-1.664,1.91-2.681,4.399-2.681,7.127
			c0,5.996,4.878,10.874,10.873,10.874c5.996,0,10.874-4.878,10.874-10.874s-4.878-10.874-10.874-10.874
			c-2.729,0-5.221,1.019-7.132,2.686l-1.52-1.521c2.303-2.055,5.329-3.315,8.651-3.315c7.182,0,13.024,5.843,13.024,13.024
			S31.185,38.001,24.003,38.001z M18.326,20.364c-1.025,1.261-1.643,2.865-1.643,4.612c0,4.036,3.283,7.32,7.319,7.32
			s7.32-3.284,7.32-7.32c0-4.035-3.284-7.319-7.32-7.32c-1.75,0-3.356,0.619-4.617,1.646l-1.454-1.454
			c1.637-1.397,3.756-2.246,6.071-2.246c5.169,0,9.374,4.205,9.374,9.374s-4.205,9.374-9.374,9.374
			c-5.168,0-9.373-4.205-9.373-9.374c0-2.313,0.847-4.431,2.241-6.067L18.326,20.364z M23.469,25.507
			c0.146,0.147,0.338,0.221,0.53,0.221s0.384-0.073,0.53-0.221c0.293-0.292,0.293-0.768,0-1.06l-4.073-4.074
			c0.983-0.76,2.211-1.217,3.547-1.217c3.209,0.001,5.82,2.612,5.82,5.82c0,3.209-2.611,5.82-5.82,5.82s-5.819-2.611-5.819-5.82
			c0-1.333,0.455-2.56,1.213-3.542L23.469,25.507z"/>
	</g>
	<g>
		<g>
			<path fill="#231F20" d="M117.426,10.581c-0.192,0-0.384-0.073-0.53-0.22c-0.293-0.293-0.293-0.768,0-1.061l1.287-1.287
				c0.293-0.293,0.768-0.293,1.061,0s0.293,0.768,0,1.061l-1.287,1.287C117.81,10.508,117.618,10.581,117.426,10.581z"/>
		</g>
		<g>
			<path fill="#231F20" d="M113.397,14.609c-0.192,0-0.384-0.073-0.53-0.22c-0.293-0.292-0.293-0.767,0-1.06l1.286-1.287
				c0.293-0.293,0.768-0.293,1.061,0c0.293,0.292,0.293,0.768,0,1.061l-1.286,1.286C113.781,14.536,113.59,14.609,113.397,14.609z"
				/>
		</g>
		<g>
			<path fill="#231F20" d="M118.713,14.609c-0.192,0-0.384-0.073-0.53-0.22l-1.287-1.286c-0.293-0.293-0.293-0.768,0-1.061
				s0.768-0.293,1.061,0l1.287,1.287c0.293,0.292,0.293,0.768,0,1.06C119.097,14.536,118.905,14.609,118.713,14.609z"/>
		</g>
		<g>
			<path fill="#231F20" d="M114.684,10.581c-0.192,0-0.384-0.073-0.53-0.22l-1.286-1.287c-0.293-0.293-0.293-0.768,0-1.061
				c0.294-0.293,0.769-0.292,1.061,0l1.286,1.287c0.293,0.293,0.293,0.769,0,1.062C115.067,10.508,114.875,10.581,114.684,10.581z"
				/>
		</g>
	</g>
	<g>
		<g>
			<path fill="#231F20" d="M23.521,95.778c-0.191,0-0.384-0.073-0.53-0.22c-0.293-0.293-0.293-0.768,0-1.061l1.286-1.287
				c0.293-0.293,0.768-0.293,1.061-0.001c0.293,0.293,0.293,0.769,0,1.062l-1.286,1.287C23.904,95.705,23.713,95.778,23.521,95.778z
				"/>
		</g>
		<g>
			<path fill="#231F20" d="M19.491,99.807c-0.192,0-0.384-0.073-0.53-0.22c-0.293-0.293-0.293-0.769,0-1.061l1.287-1.287
				c0.294-0.293,0.769-0.292,1.061,0c0.293,0.293,0.293,0.769,0,1.062l-1.287,1.286C19.875,99.733,19.683,99.807,19.491,99.807z"/>
		</g>
		<g>
			<path fill="#231F20" d="M24.808,99.807c-0.192,0-0.384-0.073-0.53-0.22l-1.287-1.286c-0.293-0.293-0.293-0.769,0-1.062
				c0.293-0.292,0.768-0.292,1.061,0l1.287,1.287c0.293,0.292,0.293,0.768,0,1.061C25.191,99.733,25,99.807,24.808,99.807z"/>
		</g>
		<g>
			<path fill="#231F20" d="M20.778,95.778c-0.192,0-0.384-0.073-0.53-0.22l-1.287-1.287c-0.293-0.293-0.293-0.768,0-1.061
				s0.768-0.293,1.061,0l1.287,1.287c0.293,0.293,0.293,0.768,0,1.061C21.162,95.705,20.971,95.778,20.778,95.778z"/>
		</g>
	</g>
	<g>
		<circle fill="#84DBFF" cx="95.792" cy="19.804" r="2.848"/>
	</g>
	<g>
		<circle fill="#E6E9EE" cx="99.654" cy="76.851" r="2.465"/>
	</g>
	<g>
		<circle fill="#FFD05B" cx="10.911" cy="82.271" r="2.628"/>
	</g>
	<g>
		<path fill="#FFFFFF" d="M128.052,109.878v-5.284l-4.059-0.377c-0.46-2.721-1.522-5.23-3.058-7.391l2.602-3.133l-3.737-3.736
			l-3.133,2.601c-2.159-1.534-4.67-2.598-7.391-3.058l-0.376-4.058h-5.284l-0.377,4.058c-2.721,0.46-5.23,1.523-7.391,3.058
			l-3.133-2.601l-3.737,3.736l2.602,3.133c-1.535,2.16-2.598,4.67-3.058,7.391l-4.059,0.377v5.284l4.059,0.376
			c0.46,2.721,1.522,5.231,3.058,7.392l-2.602,3.133l3.737,3.736l3.133-2.601c2.16,1.534,4.67,2.597,7.391,3.058l0.376,4.058h5.285
			l0.376-4.058c2.721-0.461,5.23-1.523,7.391-3.058l3.133,2.601l3.736-3.736l-2.601-3.133c1.535-2.16,2.598-4.671,3.058-7.392
			L128.052,109.878z"/>
		<path fill="#231F20" d="M108.9,129.779h-5.285c-0.388,0-0.711-0.295-0.747-0.681l-0.323-3.492
			c-2.394-0.479-4.627-1.404-6.653-2.753l-2.696,2.238c-0.298,0.247-0.735,0.229-1.01-0.047l-3.737-3.736
			c-0.274-0.274-0.294-0.712-0.047-1.01l2.239-2.696c-1.35-2.026-2.273-4.26-2.753-6.654l-3.493-0.323
			c-0.386-0.036-0.681-0.36-0.681-0.747v-5.284c0-0.388,0.295-0.712,0.681-0.747l3.493-0.324c0.479-2.395,1.403-4.628,2.753-6.653
			l-2.239-2.696c-0.247-0.298-0.228-0.735,0.047-1.009l3.737-3.737c0.274-0.274,0.712-0.294,1.01-0.047l2.696,2.239
			c2.025-1.35,4.259-2.274,6.653-2.754l0.324-3.492c0.036-0.387,0.359-0.682,0.747-0.682h5.284c0.388,0,0.711,0.295,0.747,0.682
			l0.323,3.492c2.396,0.479,4.629,1.404,6.654,2.754l2.695-2.239c0.299-0.247,0.736-0.228,1.01,0.047l3.737,3.737
			c0.274,0.273,0.294,0.711,0.047,1.009l-2.239,2.696c1.35,2.025,2.273,4.259,2.753,6.653l3.493,0.325
			c0.386,0.035,0.681,0.358,0.681,0.746v5.284c0,0.387-0.295,0.711-0.681,0.747l-3.493,0.323c-0.479,2.396-1.403,4.628-2.753,6.654
			l2.238,2.696c0.247,0.298,0.228,0.735-0.047,1.01l-3.736,3.736c-0.273,0.275-0.711,0.294-1.01,0.047l-2.696-2.238
			c-2.026,1.349-4.26,2.273-6.653,2.753l-0.323,3.492C109.611,129.484,109.288,129.779,108.9,129.779z M104.299,128.279h3.918
			l0.312-3.377c0.031-0.338,0.287-0.613,0.622-0.67c2.576-0.436,4.958-1.422,7.081-2.931c0.277-0.197,0.652-0.183,0.914,0.034
			l2.606,2.165l2.77-2.77l-2.164-2.607c-0.217-0.262-0.231-0.636-0.034-0.914c1.508-2.121,2.494-4.504,2.93-7.081
			c0.057-0.335,0.331-0.59,0.67-0.621l3.378-0.313v-3.917l-3.378-0.313c-0.339-0.031-0.613-0.286-0.67-0.622
			c-0.436-2.576-1.422-4.959-2.93-7.081c-0.197-0.277-0.183-0.652,0.034-0.913l2.165-2.607l-2.771-2.77l-2.606,2.164
			c-0.262,0.218-0.636,0.232-0.914,0.034c-2.121-1.508-4.503-2.493-7.081-2.93c-0.335-0.057-0.591-0.332-0.622-0.67l-0.312-3.378
			H104.3l-0.313,3.378c-0.031,0.338-0.287,0.613-0.622,0.67c-2.576,0.437-4.959,1.422-7.081,2.93
			c-0.279,0.198-0.653,0.183-0.914-0.034l-2.606-2.164l-2.771,2.77l2.165,2.607c0.217,0.261,0.231,0.636,0.034,0.913
			c-1.508,2.122-2.494,4.505-2.93,7.081c-0.057,0.336-0.331,0.591-0.67,0.622l-3.378,0.313v3.917l3.378,0.313
			c0.339,0.031,0.613,0.286,0.67,0.621c0.436,2.576,1.422,4.959,2.93,7.081c0.197,0.278,0.183,0.653-0.034,0.914l-2.165,2.607
			l2.771,2.77l2.606-2.165c0.262-0.216,0.637-0.23,0.914-0.034c2.123,1.509,4.505,2.495,7.081,2.931
			c0.335,0.057,0.591,0.332,0.622,0.67L104.299,128.279z"/>
	</g>
	<g>
		<path fill="#231F20" d="M106.258,121.637c-0.193,0-0.387-0.003-0.577-0.011l0.061-1.499c0.313,0.013,0.63,0.014,0.944,0.004
			l0.049,1.498C106.576,121.635,106.417,121.637,106.258,121.637z M108.829,121.408l-0.266-1.477
			c0.312-0.057,0.619-0.123,0.923-0.201l0.373,1.453C109.521,121.27,109.178,121.345,108.829,121.408z M103.588,121.39
			c-0.348-0.064-0.691-0.143-1.029-0.232l0.385-1.45c0.303,0.081,0.609,0.15,0.92,0.208L103.588,121.39z M111.859,120.508
			l-0.586-1.381c0.29-0.123,0.575-0.256,0.855-0.399l0.684,1.335C112.501,120.223,112.183,120.37,111.859,120.508z M100.565,120.469
			c-0.325-0.141-0.645-0.292-0.955-0.454l0.695-1.329c0.277,0.145,0.562,0.279,0.852,0.404L100.565,120.469z M114.614,118.968
			l-0.873-1.22c0.257-0.184,0.507-0.376,0.748-0.577l0.959,1.154C115.178,118.549,114.9,118.764,114.614,118.968z M97.818,118.906
			c-0.286-0.207-0.563-0.424-0.831-0.65l0.967-1.146c0.24,0.203,0.488,0.396,0.743,0.582L97.818,118.906z M116.968,116.865
			l-1.115-1.002c0.21-0.234,0.412-0.477,0.605-0.725l1.186,0.918C117.429,116.334,117.203,116.604,116.968,116.865z M95.479,116.786
			c-0.232-0.263-0.456-0.534-0.67-0.813l1.193-0.909c0.19,0.25,0.391,0.493,0.6,0.728L95.479,116.786z M118.812,114.298
			l-1.309-0.731c0.153-0.275,0.299-0.556,0.434-0.843l1.357,0.64C119.144,113.682,118.982,113.994,118.812,114.298z M93.654,114.21
			c-0.17-0.306-0.329-0.62-0.477-0.94l1.363-0.627c0.132,0.286,0.273,0.566,0.426,0.84L93.654,114.21z M120.049,111.396
			l-1.436-0.438c0.091-0.299,0.17-0.603,0.238-0.91l1.465,0.324C120.24,110.719,120.151,111.06,120.049,111.396z M92.438,111.297
			c-0.099-0.336-0.186-0.678-0.26-1.022l1.467-0.315c0.066,0.309,0.144,0.614,0.232,0.914L92.438,111.297z M120.621,108.29
			l-1.496-0.11c0.023-0.312,0.034-0.627,0.034-0.944h1.5C120.659,107.59,120.646,107.941,120.621,108.29z M91.888,108.188
			c-0.021-0.314-0.031-0.632-0.031-0.952l1.5-0.097c0,0.384,0.009,0.668,0.027,0.951L91.888,108.188z M119.138,106.477
			c-0.019-0.318-0.049-0.633-0.089-0.944l1.486-0.194c0.046,0.346,0.078,0.694,0.101,1.047L119.138,106.477z M93.506,105.262
			l-1.482-0.227c0.054-0.351,0.12-0.696,0.199-1.038l1.461,0.34C93.612,104.642,93.554,104.95,93.506,105.262z M118.664,103.686
			c-0.086-0.304-0.184-0.604-0.292-0.897l1.408-0.517c0.12,0.328,0.229,0.663,0.327,1.003L118.664,103.686z M94.241,102.529
			l-1.396-0.547c0.129-0.328,0.269-0.651,0.42-0.968l1.354,0.647C94.482,101.946,94.356,102.235,94.241,102.529z M117.595,101.071
			c-0.151-0.277-0.312-0.549-0.482-0.813l1.262-0.811c0.189,0.294,0.368,0.596,0.537,0.904L117.595,101.071z M95.559,100.024
			l-1.244-0.838c0.197-0.292,0.404-0.577,0.622-0.853l1.178,0.927C95.92,99.508,95.734,99.764,95.559,100.024z M115.977,98.75
			c-0.207-0.238-0.422-0.467-0.646-0.688l1.055-1.067c0.25,0.247,0.492,0.505,0.723,0.77L115.977,98.75z M97.389,97.867l-1.031-1.09
			c0.256-0.242,0.519-0.475,0.791-0.696l0.949,1.161C97.854,97.441,97.617,97.65,97.389,97.867z M113.893,96.835
			c-0.254-0.187-0.515-0.364-0.781-0.532l0.799-1.27c0.298,0.188,0.588,0.385,0.871,0.593L113.893,96.835z M99.643,96.156
			l-0.771-1.287c0.301-0.18,0.609-0.35,0.924-0.508l0.674,1.34C100.188,95.844,99.912,95.995,99.643,96.156z M111.444,95.418
			c-0.288-0.125-0.582-0.242-0.881-0.348l0.502-1.414c0.332,0.118,0.659,0.248,0.98,0.388L111.444,95.418z M102.213,94.98
			l-0.469-1.425c0.332-0.11,0.671-0.208,1.014-0.293l0.363,1.455C102.813,94.794,102.512,94.882,102.213,94.98z M108.743,94.573
			c-0.309-0.06-0.619-0.108-0.935-0.147l0.18-1.488c0.351,0.041,0.698,0.096,1.042,0.163L108.743,94.573z M104.979,94.396
			l-0.146-1.493c0.347-0.034,0.697-0.056,1.052-0.064l0.039,1.499C105.606,94.347,105.291,94.365,104.979,94.396z"/>
	</g>
	<g>
		<circle fill="#84DBFF" cx="106.258" cy="107.235" r="10.837"/>
	</g>
	<g>
		<circle fill="#FFFFFF" cx="106.258" cy="107.235" r="5.417"/>
		<path fill="#231F20" d="M106.258,113.402c-3.4,0-6.167-2.767-6.167-6.167s2.767-6.167,6.167-6.167s6.167,2.767,6.167,6.167
			S109.658,113.402,106.258,113.402z M106.258,102.568c-2.573,0-4.667,2.094-4.667,4.667s2.094,4.667,4.667,4.667
			s4.667-2.094,4.667-4.667S108.831,102.568,106.258,102.568z"/>
	</g>
	<path fill="#FFFFFF" d="M68.558,25.478v4.174l-4.506,2.542l-4.507-2.542v-4.174c1.357,1.132,2.892,1.802,4.509,1.802
		S67.2,26.609,68.558,25.478z"/>
	<path fill="#FFFFFF" d="M74.833,14.128c-0.206-0.104-0.452-0.094-0.707-0.006c0.118-0.886,0.182-1.776,0.182-2.66
		c0-7.621-4.592-10.433-10.256-10.433c-5.665,0-10.257,2.812-10.257,10.433c0,0.884,0.064,1.774,0.183,2.66
		c-0.256-0.088-0.501-0.099-0.708,0.006c-0.646,0.325-0.687,1.549-0.091,2.733c0.483,0.961,1.234,1.59,1.847,1.623
		c1.734,4.908,5.126,8.795,9.026,8.795s7.291-3.887,9.025-8.795c0.612-0.033,1.364-0.662,1.848-1.623
		C75.521,15.677,75.479,14.453,74.833,14.128z"/>
	<g>
		
			<path fill="none" stroke="#231F20" stroke-width="1.5" stroke-linecap="round" stroke-linejoin="round" stroke-miterlimit="10" d="
			M84.464,58.902"/>
		<path fill="#231F20" d="M75.171,13.458c-0.066-0.034-0.135-0.062-0.205-0.085c0.061-0.646,0.092-1.287,0.092-1.911
			c0-7.106-4.012-11.183-11.006-11.183c-6.995,0-11.007,4.076-11.007,11.183c0,0.622,0.031,1.262,0.093,1.911
			c-0.07,0.023-0.14,0.051-0.206,0.084c-1.048,0.528-1.229,2.137-0.423,3.74c0.482,0.96,1.211,1.666,1.951,1.928
			c1.058,2.825,2.58,5.116,4.335,6.669v3.856c0,0.271,0.146,0.521,0.382,0.654l4.507,2.541c0.114,0.064,0.241,0.098,0.368,0.098
			s0.254-0.033,0.368-0.098l4.506-2.541c0.236-0.134,0.382-0.383,0.382-0.654v-3.856c1.755-1.553,3.276-3.844,4.335-6.669
			c0.741-0.261,1.47-0.968,1.952-1.928C76.401,15.594,76.219,13.985,75.171,13.458z M67.808,26.93v2.283l-3.756,2.118l-3.757-2.118
			V26.93c0.022,0.014,0.036,0.013,0.046,0.003c1.188,0.707,2.443,1.097,3.711,1.097c1.269,0,2.524-0.391,3.714-1.099
			C67.774,26.94,67.787,26.942,67.808,26.93z M74.255,16.523c-0.404,0.803-0.967,1.198-1.22,1.212
			c-0.302,0.018-0.564,0.214-0.665,0.499c-1.78,5.039-5.046,8.295-8.318,8.295c-3.273,0-6.539-3.256-8.319-8.295
			c-0.101-0.285-0.363-0.481-0.665-0.499c-0.253-0.013-0.814-0.408-1.219-1.212c-0.48-0.955-0.347-1.642-0.248-1.721
			c0.015,0,0.059,0.003,0.133,0.028c0.246,0.084,0.517,0.036,0.72-0.129c0.201-0.165,0.302-0.422,0.268-0.68
			c-0.116-0.875-0.176-1.736-0.176-2.561c0-8.003,5.17-9.683,9.507-9.683s9.506,1.68,9.506,9.683c0,0.829-0.059,1.69-0.175,2.561
			c-0.034,0.259,0.067,0.516,0.269,0.68c0.201,0.165,0.474,0.213,0.719,0.129c0.074-0.025,0.117-0.028,0.123-0.035
			C74.602,14.882,74.736,15.566,74.255,16.523z"/>
		<path fill="#231F20" d="M64.262,129.779c-0.414,0-0.75-0.336-0.75-0.75V89.744c0-0.414,0.336-0.75,0.75-0.75s0.75,0.336,0.75,0.75
			v39.285C65.012,129.443,64.676,129.779,64.262,129.779z"/>
		<path fill="#231F20" d="M82.881,28.195h-7.357c-0.414,0-0.75,0.336-0.75,0.75s0.336,0.75,0.75,0.75h7.357
			c3.192,0,5.79,2.598,5.79,5.791v40.777h-7.224V44.715c0-0.414-0.336-0.75-0.75-0.75s-0.75,0.336-0.75,0.75v34.321
			c0,0.452-0.367,0.818-0.818,0.818H48.973c-0.451,0-0.818-0.366-0.818-0.818V44.715c0-0.414-0.336-0.75-0.75-0.75
			s-0.75,0.336-0.75,0.75v31.549h-7.222V35.486c0-3.193,2.598-5.791,5.79-5.791h7.357c0.414,0,0.75-0.336,0.75-0.75
			s-0.336-0.75-0.75-0.75h-7.357c-4.02,0-7.29,3.271-7.29,7.291v41.527c0,0.414,0.336,0.75,0.75,0.75h7.972v1.272
			c0,1.12,0.799,2.057,1.856,2.271v47.722c0,0.414,0.336,0.75,0.75,0.75s0.75-0.336,0.75-0.75V89.69
			c4.432-0.364,7.972-3.903,8.335-8.336h11.832c0.363,4.433,3.903,7.973,8.336,8.336v39.339c0,0.414,0.336,0.75,0.75,0.75
			s0.75-0.336,0.75-0.75V81.178c0.84-0.349,1.434-1.176,1.434-2.142v-1.272h7.974c0.414,0,0.75-0.336,0.75-0.75V35.486
			C90.171,31.467,86.9,28.195,82.881,28.195z M50.011,88.19v-6.836h6.835C56.492,84.96,53.616,87.836,50.011,88.19z M78.514,88.19
			c-3.606-0.354-6.482-3.23-6.836-6.836h6.836V88.19z"/>
	</g>
	<g>
		<g>
			<path fill="#231F20" d="M104.058,50.299h-1v-1.5h1V50.299z M101.058,50.299h-1v-1.5h1V50.299z M98.058,50.299h-1v-1.5h1V50.299z"
				/>
		</g>
		<g>
			<path fill="#231F20" d="M107.85,54.684h-1v-1.5h1V54.684z M104.85,54.684h-1v-1.5h1V54.684z M101.85,54.684h-1v-1.5h1V54.684z"/>
		</g>
		<g>
			<path fill="#231F20" d="M105.954,59.066h-1v-1.5h1V59.066z M102.954,59.066h-1v-1.5h1V59.066z M99.954,59.066h-1v-1.5h1V59.066z"
				/>
		</g>
		<g>
			<path fill="#231F20" d="M116.198,68.391c-0.097,0-0.194-0.018-0.287-0.057c-0.28-0.116-0.463-0.39-0.463-0.693v-4.19h-7.599
				c-0.414,0-0.75-0.336-0.75-0.75s0.336-0.75,0.75-0.75h8.349c0.414,0,0.75,0.336,0.75,0.75v3.13l10.043-10.042l-10.043-10.043
				v3.804c0,0.414-0.336,0.75-0.75,0.75h-12.141c-0.414,0-0.75-0.336-0.75-0.75s0.336-0.75,0.75-0.75h11.391v-4.864
				c0-0.304,0.183-0.577,0.463-0.692c0.279-0.117,0.604-0.053,0.817,0.162l11.854,11.854c0.141,0.141,0.22,0.332,0.22,0.53
				s-0.079,0.39-0.22,0.53l-11.854,11.854C116.585,68.314,116.394,68.391,116.198,68.391z"/>
		</g>
		<g>
			<path fill="#231F20" d="M107.85,63.45h-0.6v-1.5h0.6V63.45z M105.25,63.45h-1v-1.5h1V63.45z M102.25,63.45h-1v-1.5h1V63.45z
				 M99.25,63.45h-1v-1.5h1V63.45z M96.25,63.45h-1v-1.5h1V63.45z"/>
		</g>
	</g>
	<g>
		<g>
			<path fill="#231F20" d="M31.045,50.299h-1v-1.5h1V50.299z M28.045,50.299h-1v-1.5h1V50.299z M25.045,50.299h-1v-1.5h1V50.299z"/>
		</g>
		<g>
			<path fill="#231F20" d="M27.254,54.684h-1v-1.5h1V54.684z M24.254,54.684h-1v-1.5h1V54.684z M21.254,54.684h-1v-1.5h1V54.684z"/>
		</g>
		<g>
			<path fill="#231F20" d="M29.149,59.066h-1v-1.5h1V59.066z M26.149,59.066h-1v-1.5h1V59.066z M23.149,59.066h-1v-1.5h1V59.066z"/>
		</g>
		<g>
			<path fill="#231F20" d="M11.904,68.391c-0.195,0-0.387-0.076-0.53-0.219L-0.479,56.318c-0.293-0.293-0.293-0.768,0-1.061
				l11.853-11.854c0.215-0.215,0.537-0.279,0.817-0.162c0.28,0.115,0.463,0.389,0.463,0.692v4.864h11.391
				c0.414,0,0.75,0.336,0.75,0.75s-0.336,0.75-0.75,0.75H11.904c-0.414,0-0.75-0.336-0.75-0.75v-3.804L1.112,55.788L11.154,65.83
				V62.7c0-0.414,0.336-0.75,0.75-0.75h8.35c0.414,0,0.75,0.336,0.75,0.75s-0.336,0.75-0.75,0.75h-7.6v4.19
				c0,0.304-0.183,0.577-0.463,0.693C12.099,68.373,12.001,68.391,11.904,68.391z"/>
		</g>
		<g>
			<path fill="#231F20" d="M32.854,63.45h-1v-1.5h1V63.45z M29.854,63.45h-1v-1.5h1V63.45z M26.854,63.45h-1v-1.5h1V63.45z
				 M23.854,63.45h-1v-1.5h1V63.45z M20.854,63.45h-0.6v-1.5h0.6V63.45z"/>
		</g>
	</g>
	<g>
		<circle fill="#FFFFFF" cx="19.492" cy="120.888" r="4.117"/>
		<path fill="#231F20" d="M19.491,125.754c-2.684,0-4.867-2.184-4.867-4.867s2.184-4.867,4.867-4.867
			c2.685,0,4.868,2.184,4.868,4.867S22.176,125.754,19.491,125.754z M19.491,117.52c-1.856,0-3.367,1.512-3.367,3.367
			c0,1.857,1.511,3.367,3.367,3.367c1.857,0,3.368-1.51,3.368-3.367C22.859,119.031,21.349,117.52,19.491,117.52z"/>
	</g>
</g>
</svg>
